<svg version="1.1" viewBox="0.0 0.0 600.0 371.0" fill="none" stroke="none" stroke-linecap="square" stroke-miterlimit="10" width="600" height="371" xmlns:xlink="http://www.w3.org/1999/xlink" xmlns="http://www.w3.org/2000/svg"><path fill="#ffffff" d="M0 0L600.0 0L600.0 371.0L0 371.0L0 0Z" fill-rule="nonzero"/><path stroke="#cccccc" stroke-width="1.0" stroke-linecap="butt" d="M77.5 51.5L77.5 300.5" fill-rule="nonzero"/><path stroke="#cccccc" stroke-width="1.0" stroke-linecap="butt" d="M245.5 51.5L245.5 300.5" fill-rule="nonzero"/><path stroke="#cccccc" stroke-width="1.0" stroke-linecap="butt" d="M413.5 51.5L413.5 300.5" fill-rule="nonzero"/><path stroke="#cccccc" stroke-width="1.0" stroke-linecap="butt" d="M581.5 51.5L581.5 300.5" fill-rule="nonzero"/><path stroke="#333333" stroke-width="1.0" stroke-linecap="butt" d="M77.5 300.5L581.5 300.5" fill-rule="nonzero"/><path stroke="#cccccc" stroke-width="1.0" stroke-linecap="butt" d="M77.5 259.5L581.5 259.5" fill-rule="nonzero"/><path stroke="#cccccc" stroke-width="1.0" stroke-linecap="butt" d="M77.5 217.5L581.5 217.5" fill-rule="nonzero"/><path stroke="#cccccc" stroke-width="1.0" stroke-linecap="butt" d="M77.5 176.5L581.5 176.5" fill-rule="nonzero"/><path stroke="#cccccc" stroke-width="1.0" stroke-linecap="butt" d="M77.5 134.5L581.5 134.5" fill-rule="nonzero"/><path stroke="#cccccc" stroke-width="1.0" stroke-linecap="butt" d="M77.5 93.5L581.5 93.5" fill-rule="nonzero"/><path stroke="#cccccc" stroke-width="1.0" stroke-linecap="butt" d="M77.5 51.5L581.5 51.5" fill-rule="nonzero"/><path stroke="#eeeeee" stroke-width="1.0" stroke-linecap="butt" d="M77.5 51.916668L77.5 300.45" fill-rule="nonzero"/><path stroke="#eeeeee" stroke-width="1.0" stroke-linecap="butt" d="M245.5 51.916668L245.5 300.45" fill-rule="nonzero"/><path stroke="#eeeeee" stroke-width="1.0" stroke-linecap="butt" d="M413.5 51.916668L413.5 300.45" fill-rule="nonzero"/><path stroke="#eeeeee" stroke-width="1.0" stroke-linecap="butt" d="M581.5 51.916668L581.5 300.45" fill-rule="nonzero"/><clipPath id="id_0"><path d="M77.55 51.916668L581.45 51.916668L581.45 300.45L77.55 300.45L77.55 51.916668Z" clip-rule="nonzero"/></clipPath><path stroke="#4285f4" stroke-width="2.0" stroke-linecap="butt" clip-path="url(#id_0)" d="M77.55 277.092L245.51666 229.98872L413.48334 175.01523L581.45 61.2988" fill-rule="nonzero"/><path stroke="#ea4335" stroke-width="2.0" stroke-linecap="butt" clip-path="url(#id_0)" d="M77.55 281.9463L245.51666 245.64218L413.48334 199.94312L581.45 154.61893" fill-rule="nonzero"/><path stroke="#fbbc04" stroke-width="2.0" stroke-linecap="butt" clip-path="url(#id_0)" d="M77.55 281.99597L245.51666 245.13269L413.48334 199.92241L581.45 151.23265" fill-rule="nonzero"/><path stroke="#34a853" stroke-width="2.0" stroke-linecap="butt" clip-path="url(#id_0)" d="M77.55 292.29355L245.51666 274.65637L413.48334 258.90558L581.45 221.03325" fill-rule="nonzero"/><path fill="#000000" fill-opacity="0.0" clip-path="url(#id_0)" d="M80.55 277.092C80.55 278.74887 79.206856 280.092 77.55 280.092C75.89314 280.092 74.55 278.74887 74.55 277.092C74.55 275.43515 75.89314 274.092 77.55 274.092C79.206856 274.092 80.55 275.43515 80.55 277.092Z" fill-rule="nonzero"/><path fill="#000000" fill-opacity="0.0" clip-path="url(#id_0)" d="M248.51666 229.98872C248.51666 231.64558 247.17352 232.98872 245.51666 232.98872C243.85982 232.98872 242.51666 231.64558 242.51666 229.98872C242.51666 228.33188 243.85982 226.98872 245.51666 226.98872C247.17352 226.98872 248.51666 228.33188 248.51666 229.98872Z" fill-rule="nonzero"/><path fill="#000000" fill-opacity="0.0" clip-path="url(#id_0)" d="M416.48334 175.01523C416.48334 176.67207 415.1402 178.01523 413.48334 178.01523C411.82648 178.01523 410.48334 176.67207 410.48334 175.01523C410.48334 173.35837 411.82648 172.01523 413.48334 172.01523C415.1402 172.01523 416.48334 173.35837 416.48334 175.01523Z" fill-rule="nonzero"/><path fill="#000000" fill-opacity="0.0" clip-path="url(#id_0)" d="M584.45 61.2988C584.45 62.955654 583.1069 64.2988 581.45 64.2988C579.79315 64.2988 578.45 62.955654 578.45 61.2988C578.45 59.641945 579.79315 58.2988 581.45 58.2988C583.1069 58.2988 584.45 59.641945 584.45 61.2988Z" fill-rule="nonzero"/><path fill="#ea4335" clip-path="url(#id_0)" d="M77.55 281.9463C77.55 281.9463 77.55 281.9463 77.55 281.9463C77.55 281.9463 77.55 281.9463 77.55 281.9463C77.55 281.9463 77.55 281.9463 77.55 281.9463C77.55 281.9463 77.55 281.9463 77.55 281.9463Z" fill-rule="nonzero"/><path fill="#ea4335" clip-path="url(#id_0)" d="M245.51666 245.64218C245.51666 245.64218 245.51666 245.64218 245.51666 245.64218C245.51666 245.64218 245.51666 245.64218 245.51666 245.64218C245.51666 245.64218 245.51666 245.64218 245.51666 245.64218C245.51666 245.64218 245.51666 245.64218 245.51666 245.64218Z" fill-rule="nonzero"/><path fill="#ea4335" clip-path="url(#id_0)" d="M413.48334 199.94312C413.48334 199.94312 413.48334 199.94312 413.48334 199.94312C413.48334 199.94312 413.48334 199.94312 413.48334 199.94312C413.48334 199.94312 413.48334 199.94312 413.48334 199.94312C413.48334 199.94312 413.48334 199.94312 413.48334 199.94312Z" fill-rule="nonzero"/><path fill="#ea4335" clip-path="url(#id_0)" d="M581.45 154.61893C581.45 154.61893 581.45 154.61893 581.45 154.61893C581.45 154.61893 581.45 154.61893 581.45 154.61893C581.45 154.61893 581.45 154.61893 581.45 154.61893C581.45 154.61893 581.45 154.61893 581.45 154.61893Z" fill-rule="nonzero"/><path fill="#000000" fill-opacity="0.0" clip-path="url(#id_0)" d="M80.55 281.99597C80.55 283.65283 79.206856 284.99597 77.55 284.99597C75.89314 284.99597 74.55 283.65283 74.55 281.99597C74.55 280.33914 75.89314 278.99597 77.55 278.99597C79.206856 278.99597 80.55 280.33914 80.55 281.99597Z" fill-rule="nonzero"/><path fill="#000000" fill-opacity="0.0" clip-path="url(#id_0)" d="M248.51666 245.13269C248.51666 246.78955 247.17352 248.13269 245.51666 248.13269C243.85982 248.13269 242.51666 246.78955 242.51666 245.13269C242.51666 243.47585 243.85982 242.13269 245.51666 242.13269C247.17352 242.13269 248.51666 243.47585 248.51666 245.13269Z" fill-rule="nonzero"/><path fill="#000000" fill-opacity="0.0" clip-path="url(#id_0)" d="M416.48334 199.92241C416.48334 201.57927 415.1402 202.92241 413.48334 202.92241C411.82648 202.92241 410.48334 201.57927 410.48334 199.92241C410.48334 198.26555 411.82648 196.92241 413.48334 196.92241C415.1402 196.92241 416.48334 198.26555 416.48334 199.92241Z" fill-rule="nonzero"/><path fill="#000000" fill-opacity="0.0" clip-path="url(#id_0)" d="M584.45 151.23265C584.45 152.88951 583.1069 154.23265 581.45 154.23265C579.79315 154.23265 578.45 152.88951 578.45 151.23265C578.45 149.5758 579.79315 148.23265 581.45 148.23265C583.1069 148.23265 584.45 149.5758 584.45 151.23265Z" fill-rule="nonzero"/><path fill="#000000" fill-opacity="0.0" clip-path="url(#id_0)" d="M80.55 292.29355C80.55 293.9504 79.206856 295.29355 77.55 295.29355C75.89314 295.29355 74.55 293.9504 74.55 292.29355C74.55 290.6367 75.89314 289.29355 77.55 289.29355C79.206856 289.29355 80.55 290.6367 80.55 292.29355Z" fill-rule="nonzero"/><path fill="#000000" fill-opacity="0.0" clip-path="url(#id_0)" d="M248.51666 274.65637C248.51666 276.31323 247.17352 277.65637 245.51666 277.65637C243.85982 277.65637 242.51666 276.31323 242.51666 274.65637C242.51666 272.99954 243.85982 271.65637 245.51666 271.65637C247.17352 271.65637 248.51666 272.99954 248.51666 274.65637Z" fill-rule="nonzero"/><path fill="#000000" fill-opacity="0.0" clip-path="url(#id_0)" d="M416.48334 258.90558C416.48334 260.56244 415.1402 261.90558 413.48334 261.90558C411.82648 261.90558 410.48334 260.56244 410.48334 258.90558C410.48334 257.24872 411.82648 255.90558 413.48334 255.90558C415.1402 255.90558 416.48334 257.24872 416.48334 258.90558Z" fill-rule="nonzero"/><path fill="#000000" fill-opacity="0.0" clip-path="url(#id_0)" d="M584.45 221.03325C584.45 222.6901 583.1069 224.03325 581.45 224.03325C579.79315 224.03325 578.45 222.6901 578.45 221.03325C578.45 219.37639 579.79315 218.03325 581.45 218.03325C583.1069 218.03325 584.45 219.37639 584.45 221.03325Z" fill-rule="nonzero"/><path stroke="#ffffff" stroke-width="3.0" stroke-linejoin="round" stroke-linecap="round" d="M91.55 190.71458L91.55 191.76146L84.83125 191.76146Q85.19063 192.15208 85.56563 192.77708Q85.925 193.38646 86.09688 193.87083L85.08125 193.87083Q84.65938 192.99583 84.08125 192.33958Q83.4875 191.66771 82.925 191.38646L82.925 190.71458L91.55 190.71458ZM91.55 187.08958L90.34688 187.08958L90.34688 185.88646L91.55 185.88646L91.55 187.08958ZM91.55 180.71458L91.55 181.76146L84.83125 181.76146Q85.19063 182.15208 85.56563 182.77708Q85.925 183.38646 86.09688 183.87083L85.08125 183.87083Q84.65938 182.99583 84.08125 182.33958Q83.4875 181.66771 82.925 181.38646L82.925 180.71458L91.55 180.71458ZM90.53438 172.13646L91.55 172.13646L91.55 177.82396Q91.175 177.82396 90.81563 177.69896Q90.2375 177.48021 89.675 177.01146Q89.1125 176.52708 88.37813 175.62083Q87.22188 174.21458 86.55 173.73021Q85.87813 173.23021 85.28438 173.23021Q84.65938 173.23021 84.2375 173.68333Q83.8 174.13646 83.8 174.85521Q83.8 175.62083 84.25313 176.07396Q84.70625 176.52708 85.51875 176.54271L85.40938 177.62083Q84.19063 177.51146 83.56563 176.79271Q82.925 176.05833 82.925 174.82396Q82.925 173.58958 83.6125 172.87083Q84.3 172.15208 85.31563 172.15208Q85.83125 172.15208 86.33125 172.37083Q86.81563 172.57396 87.37813 173.07396Q87.925 173.55833 88.87813 174.68333Q89.675 175.63646 89.97188 175.91771Q90.25313 176.18333 90.53438 176.35521L90.53438 172.13646ZM84.08125 170.62083L83.06563 170.62083L83.06563 165.05833L83.89375 165.05833Q84.76875 165.87083 86.22188 166.68333Q87.65938 167.48021 89.19063 167.91771Q90.26875 168.24583 91.55 168.32396L91.55 169.41771Q90.53438 169.40208 89.09688 169.02708Q87.65938 168.63646 86.33125 167.93333Q85.00313 167.21458 84.08125 166.40208L84.08125 170.62083ZM86.89375 162.05833Q86.64375 162.71458 86.20625 163.04271Q85.75313 163.35521 85.14375 163.35521Q84.20625 163.35521 83.56563 162.68333Q82.925 161.99583 82.925 160.88646Q82.925 159.76146 83.58125 159.07396Q84.2375 158.38646 85.175 158.38646Q85.76875 158.38646 86.20625 158.69896Q86.64375 159.01146 86.89375 159.65208Q87.14375 158.85521 87.72188 158.44896Q88.3 158.04271 89.09688 158.04271Q90.19063 158.04271 90.94063 158.82396Q91.69063 159.58958 91.69063 160.87083Q91.69063 162.13646 90.94063 162.91771Q90.19063 163.69896 89.06563 163.69896Q88.22188 163.69896 87.65938 163.27708Q87.09688 162.83958 86.89375 162.05833ZM85.09688 162.27708Q85.70625 162.27708 86.09688 161.88646Q86.4875 161.48021 86.4875 160.85521Q86.4875 160.24583 86.1125 159.85521Q85.72188 159.46458 85.15938 159.46458Q84.58125 159.46458 84.19063 159.87083Q83.78438 160.27708 83.78438 160.87083Q83.78438 161.48021 84.175 161.88646Q84.56563 162.27708 85.09688 162.27708ZM89.06563 162.60521Q89.51875 162.60521 89.94063 162.40208Q90.3625 162.18333 90.59688 161.76146Q90.83125 161.33958 90.83125 160.85521Q90.83125 160.10521 90.34688 159.62083Q89.8625 159.12083 89.1125 159.12083Q88.34688 159.12083 87.84688 159.62083Q87.34688 160.12083 87.34688 160.88646Q87.34688 161.63646 87.84688 162.12083Q88.33125 162.60521 89.06563 162.60521Z" fill-rule="nonzero"/><path fill="#808080" d="M91.55 190.71458L91.55 191.76146L84.83125 191.76146Q85.19063 192.15208 85.56563 192.77708Q85.925 193.38646 86.09688 193.87083L85.08125 193.87083Q84.65938 192.99583 84.08125 192.33958Q83.4875 191.66771 82.925 191.38646L82.925 190.71458L91.55 190.71458ZM91.55 187.08958L90.34688 187.08958L90.34688 185.88646L91.55 185.88646L91.55 187.08958ZM91.55 180.71458L91.55 181.76146L84.83125 181.76146Q85.19063 182.15208 85.56563 182.77708Q85.925 183.38646 86.09688 183.87083L85.08125 183.87083Q84.65938 182.99583 84.08125 182.33958Q83.4875 181.66771 82.925 181.38646L82.925 180.71458L91.55 180.71458ZM90.53438 172.13646L91.55 172.13646L91.55 177.82396Q91.175 177.82396 90.81563 177.69896Q90.2375 177.48021 89.675 177.01146Q89.1125 176.52708 88.37813 175.62083Q87.22188 174.21458 86.55 173.73021Q85.87813 173.23021 85.28438 173.23021Q84.65938 173.23021 84.2375 173.68333Q83.8 174.13646 83.8 174.85521Q83.8 175.62083 84.25313 176.07396Q84.70625 176.52708 85.51875 176.54271L85.40938 177.62083Q84.19063 177.51146 83.56563 176.79271Q82.925 176.05833 82.925 174.82396Q82.925 173.58958 83.6125 172.87083Q84.3 172.15208 85.31563 172.15208Q85.83125 172.15208 86.33125 172.37083Q86.81563 172.57396 87.37813 173.07396Q87.925 173.55833 88.87813 174.68333Q89.675 175.63646 89.97188 175.91771Q90.25313 176.18333 90.53438 176.35521L90.53438 172.13646ZM84.08125 170.62083L83.06563 170.62083L83.06563 165.05833L83.89375 165.05833Q84.76875 165.87083 86.22188 166.68333Q87.65938 167.48021 89.19063 167.91771Q90.26875 168.24583 91.55 168.32396L91.55 169.41771Q90.53438 169.40208 89.09688 169.02708Q87.65938 168.63646 86.33125 167.93333Q85.00313 167.21458 84.08125 166.40208L84.08125 170.62083ZM86.89375 162.05833Q86.64375 162.71458 86.20625 163.04271Q85.75313 163.35521 85.14375 163.35521Q84.20625 163.35521 83.56563 162.68333Q82.925 161.99583 82.925 160.88646Q82.925 159.76146 83.58125 159.07396Q84.2375 158.38646 85.175 158.38646Q85.76875 158.38646 86.20625 158.69896Q86.64375 159.01146 86.89375 159.65208Q87.14375 158.85521 87.72188 158.44896Q88.3 158.04271 89.09688 158.04271Q90.19063 158.04271 90.94063 158.82396Q91.69063 159.58958 91.69063 160.87083Q91.69063 162.13646 90.94063 162.91771Q90.19063 163.69896 89.06563 163.69896Q88.22188 163.69896 87.65938 163.27708Q87.09688 162.83958 86.89375 162.05833ZM85.09688 162.27708Q85.70625 162.27708 86.09688 161.88646Q86.4875 161.48021 86.4875 160.85521Q86.4875 160.24583 86.1125 159.85521Q85.72188 159.46458 85.15938 159.46458Q84.58125 159.46458 84.19063 159.87083Q83.78438 160.27708 83.78438 160.87083Q83.78438 161.48021 84.175 161.88646Q84.56563 162.27708 85.09688 162.27708ZM89.06563 162.60521Q89.51875 162.60521 89.94063 162.40208Q90.3625 162.18333 90.59688 161.76146Q90.83125 161.33958 90.83125 160.85521Q90.83125 160.10521 90.34688 159.62083Q89.8625 159.12083 89.1125 159.12083Q88.34688 159.12083 87.84688 159.62083Q87.34688 160.12083 87.34688 160.88646Q87.34688 161.63646 87.84688 162.12083Q88.33125 162.60521 89.06563 162.60521Z" fill-rule="nonzero"/><path stroke="#ffffff" stroke-width="3.0" stroke-linejoin="round" stroke-linecap="round" d="M257.25104 194.68333L257.1104 193.62083Q258.00104 193.44896 258.4073 193.01146Q258.7979 192.57396 258.7979 191.94896Q258.7979 191.19896 258.2823 190.68333Q257.76666 190.16771 257.00104 190.16771Q256.2823 190.16771 255.81354 190.65208Q255.32916 191.12083 255.32916 191.85521Q255.32916 192.15208 255.45416 192.60521L254.51666 192.48021Q254.53229 192.37083 254.53229 192.30833Q254.53229 191.63646 254.18854 191.10521Q253.82916 190.55833 253.09479 190.55833Q252.51666 190.55833 252.14166 190.94896Q251.75104 191.33958 251.75104 191.96458Q251.75104 192.57396 252.14166 192.99583Q252.53229 193.40208 253.29791 193.51146L253.11041 194.57396Q252.06354 194.38646 251.48541 193.69896Q250.89166 193.01146 250.89166 191.99583Q250.89166 191.29271 251.20416 190.69896Q251.50104 190.10521 252.01666 189.79271Q252.53229 189.48021 253.12604 189.48021Q253.67291 189.48021 254.14166 189.77708Q254.59479 190.07396 254.86041 190.65208Q255.03229 189.90208 255.59479 189.48021Q256.14166 189.05833 256.9854 189.05833Q258.1104 189.05833 258.89166 189.88646Q259.6729 190.69896 259.6729 191.94896Q259.6729 193.07396 259.00104 193.82396Q258.31354 194.57396 257.25104 194.68333ZM259.51666 187.08958L258.31354 187.08958L258.31354 185.88646L259.51666 185.88646L259.51666 187.08958ZM259.51666 181.30833L257.45416 181.30833L257.45416 185.02708L256.4854 185.02708L250.92291 181.10521L250.92291 180.24583L256.4854 180.24583L256.4854 179.08958L257.45416 179.08958L257.45416 180.24583L259.51666 180.24583L259.51666 181.30833ZM256.4854 181.30833L252.62604 181.30833L256.4854 183.99583L256.4854 181.30833ZM255.28229 177.68333Q253.75104 177.68333 252.82916 177.37083Q251.89166 177.05833 251.39166 176.44896Q250.89166 175.82396 250.89166 174.88646Q250.89166 174.19896 251.17291 173.68333Q251.45416 173.15208 251.98541 172.80833Q252.50104 172.46458 253.25104 172.27708Q254.00104 172.08958 255.28229 172.08958Q256.7979 172.08958 257.7198 172.40208Q258.64166 172.69896 259.1573 173.32396Q259.6573 173.93333 259.6573 174.88646Q259.6573 176.12083 258.76666 176.83958Q257.70416 177.68333 255.28229 177.68333ZM255.28229 176.60521Q257.39166 176.60521 258.0948 176.10521Q258.7979 175.60521 258.7979 174.88646Q258.7979 174.15208 258.0948 173.66771Q257.39166 173.16771 255.28229 173.16771Q253.15729 173.16771 252.46979 173.66771Q251.76666 174.15208 251.76666 174.90208Q251.76666 175.62083 252.37604 176.05833Q253.15729 176.60521 255.28229 176.60521ZM258.50104 165.13646L259.51666 165.13646L259.51666 170.82396Q259.14166 170.82396 258.7823 170.69896Q258.20416 170.48021 257.64166 170.01146Q257.07916 169.52708 256.3448 168.62083Q255.18854 167.21458 254.51666 166.73021Q253.84479 166.23021 253.25104 166.23021Q252.62604 166.23021 252.20416 166.68333Q251.76666 167.13646 251.76666 167.85521Q251.76666 168.62083 252.21979 169.07396Q252.67291 169.52708 253.48541 169.54271L253.37604 170.62083Q252.15729 170.51146 251.53229 169.79271Q250.89166 169.05833 250.89166 167.82396Q250.89166 166.58958 251.57916 165.87083Q252.26666 165.15208 253.28229 165.15208Q253.79791 165.15208 254.29791 165.37083Q254.78229 165.57396 255.34479 166.07396Q255.89166 166.55833 256.8448 167.68333Q257.64166 168.63646 257.93854 168.91771Q258.2198 169.18333 258.50104 169.35521L258.50104 165.13646ZM259.51666 159.71458L259.51666 160.76146L252.79791 160.76146Q253.15729 161.15208 253.53229 161.77708Q253.89166 162.38646 254.06354 162.87083L253.04791 162.87083Q252.62604 161.99583 252.04791 161.33958Q251.45416 160.66771 250.89166 160.38646L250.89166 159.71458L259.51666 159.71458Z" fill-rule="nonzero"/><path fill="#808080" d="M257.25104 194.68333L257.1104 193.62083Q258.00104 193.44896 258.4073 193.01146Q258.7979 192.57396 258.7979 191.94896Q258.7979 191.19896 258.2823 190.68333Q257.76666 190.16771 257.00104 190.16771Q256.2823 190.16771 255.81354 190.65208Q255.32916 191.12083 255.32916 191.85521Q255.32916 192.15208 255.45416 192.60521L254.51666 192.48021Q254.53229 192.37083 254.53229 192.30833Q254.53229 191.63646 254.18854 191.10521Q253.82916 190.55833 253.09479 190.55833Q252.51666 190.55833 252.14166 190.94896Q251.75104 191.33958 251.75104 191.96458Q251.75104 192.57396 252.14166 192.99583Q252.53229 193.40208 253.29791 193.51146L253.11041 194.57396Q252.06354 194.38646 251.48541 193.69896Q250.89166 193.01146 250.89166 191.99583Q250.89166 191.29271 251.20416 190.69896Q251.50104 190.10521 252.01666 189.79271Q252.53229 189.48021 253.12604 189.48021Q253.67291 189.48021 254.14166 189.77708Q254.59479 190.07396 254.86041 190.65208Q255.03229 189.90208 255.59479 189.48021Q256.14166 189.05833 256.9854 189.05833Q258.1104 189.05833 258.89166 189.88646Q259.6729 190.69896 259.6729 191.94896Q259.6729 193.07396 259.00104 193.82396Q258.31354 194.57396 257.25104 194.68333ZM259.51666 187.08958L258.31354 187.08958L258.31354 185.88646L259.51666 185.88646L259.51666 187.08958ZM259.51666 181.30833L257.45416 181.30833L257.45416 185.02708L256.4854 185.02708L250.92291 181.10521L250.92291 180.24583L256.4854 180.24583L256.4854 179.08958L257.45416 179.08958L257.45416 180.24583L259.51666 180.24583L259.51666 181.30833ZM256.4854 181.30833L252.62604 181.30833L256.4854 183.99583L256.4854 181.30833ZM255.28229 177.68333Q253.75104 177.68333 252.82916 177.37083Q251.89166 177.05833 251.39166 176.44896Q250.89166 175.82396 250.89166 174.88646Q250.89166 174.19896 251.17291 173.68333Q251.45416 173.15208 251.98541 172.80833Q252.50104 172.46458 253.25104 172.27708Q254.00104 172.08958 255.28229 172.08958Q256.7979 172.08958 257.7198 172.40208Q258.64166 172.69896 259.1573 173.32396Q259.6573 173.93333 259.6573 174.88646Q259.6573 176.12083 258.76666 176.83958Q257.70416 177.68333 255.28229 177.68333ZM255.28229 176.60521Q257.39166 176.60521 258.0948 176.10521Q258.7979 175.60521 258.7979 174.88646Q258.7979 174.15208 258.0948 173.66771Q257.39166 173.16771 255.28229 173.16771Q253.15729 173.16771 252.46979 173.66771Q251.76666 174.15208 251.76666 174.90208Q251.76666 175.62083 252.37604 176.05833Q253.15729 176.60521 255.28229 176.60521ZM258.50104 165.13646L259.51666 165.13646L259.51666 170.82396Q259.14166 170.82396 258.7823 170.69896Q258.20416 170.48021 257.64166 170.01146Q257.07916 169.52708 256.3448 168.62083Q255.18854 167.21458 254.51666 166.73021Q253.84479 166.23021 253.25104 166.23021Q252.62604 166.23021 252.20416 166.68333Q251.76666 167.13646 251.76666 167.85521Q251.76666 168.62083 252.21979 169.07396Q252.67291 169.52708 253.48541 169.54271L253.37604 170.62083Q252.15729 170.51146 251.53229 169.79271Q250.89166 169.05833 250.89166 167.82396Q250.89166 166.58958 251.57916 165.87083Q252.26666 165.15208 253.28229 165.15208Q253.79791 165.15208 254.29791 165.37083Q254.78229 165.57396 255.34479 166.07396Q255.89166 166.55833 256.8448 167.68333Q257.64166 168.63646 257.93854 168.91771Q258.2198 169.18333 258.50104 169.35521L258.50104 165.13646ZM259.51666 159.71458L259.51666 160.76146L252.79791 160.76146Q253.15729 161.15208 253.53229 161.77708Q253.89166 162.38646 254.06354 162.87083L253.04791 162.87083Q252.62604 161.99583 252.04791 161.33958Q251.45416 160.66771 250.89166 160.38646L250.89166 159.71458L259.51666 159.71458Z" fill-rule="nonzero"/><path stroke="#ffffff" stroke-width="3.0" stroke-linejoin="round" stroke-linecap="round" d="M420.99896 189.21458L421.0771 190.26146Q420.4521 190.40208 420.17084 190.65208Q419.7177 191.08958 419.7177 191.71458Q419.7177 192.21458 419.99896 192.60521Q420.37396 193.08958 421.0771 193.38646Q421.7646 193.66771 423.04584 193.68333Q422.4677 193.30833 422.18646 192.76146Q421.9052 192.19896 421.9052 191.58958Q421.9052 190.54271 422.68646 189.80833Q423.4677 189.05833 424.68646 189.05833Q425.49896 189.05833 426.2021 189.41771Q426.8896 189.76146 427.2646 190.37083Q427.62396 190.98021 427.62396 191.74583Q427.62396 193.07396 426.6552 193.90208Q425.68646 194.73021 423.4677 194.73021Q420.9677 194.73021 419.8427 193.80833Q418.85834 193.01146 418.85834 191.65208Q418.85834 190.63646 419.43646 189.99583Q419.99896 189.33958 420.99896 189.21458ZM424.7021 193.51146Q425.24896 193.51146 425.74896 193.29271Q426.23334 193.05833 426.49896 192.65208Q426.7646 192.23021 426.7646 191.76146Q426.7646 191.10521 426.23334 190.62083Q425.68646 190.13646 424.7646 190.13646Q423.87396 190.13646 423.35834 190.62083Q422.8427 191.08958 422.8427 191.80833Q422.8427 192.52708 423.35834 193.02708Q423.87396 193.51146 424.7021 193.51146ZM427.48334 187.08958L426.2802 187.08958L426.2802 185.88646L427.48334 185.88646L427.48334 187.08958ZM423.24896 184.68333Q421.7177 184.68333 420.79584 184.37083Q419.85834 184.05833 419.35834 183.44896Q418.85834 182.82396 418.85834 181.88646Q418.85834 181.19896 419.1396 180.68333Q419.42084 180.15208 419.9521 179.80833Q420.4677 179.46458 421.2177 179.27708Q421.9677 179.08958 423.24896 179.08958Q424.7646 179.08958 425.68646 179.40208Q426.60834 179.69896 427.12396 180.32396Q427.62396 180.93333 427.62396 181.88646Q427.62396 183.12083 426.73334 183.83958Q425.67084 184.68333 423.24896 184.68333ZM423.24896 183.60521Q425.35834 183.60521 426.06146 183.10521Q426.7646 182.60521 426.7646 181.88646Q426.7646 181.15208 426.06146 180.66771Q425.35834 180.16771 423.24896 180.16771Q421.12396 180.16771 420.43646 180.66771Q419.73334 181.15208 419.73334 181.90208Q419.73334 182.62083 420.3427 183.05833Q421.12396 183.60521 423.24896 183.60521ZM425.23334 177.68333L425.1396 176.57396Q425.9521 176.44896 426.35834 176.01146Q426.7646 175.55833 426.7646 174.91771Q426.7646 174.16771 426.18646 173.63646Q425.60834 173.10521 424.67084 173.10521Q423.7646 173.10521 423.24896 173.62083Q422.7177 174.12083 422.7177 174.94896Q422.7177 175.44896 422.9521 175.87083Q423.18646 176.27708 423.54584 176.51146L423.42084 177.49583L419.0146 176.66771L419.0146 172.38646L420.0146 172.38646L420.0146 175.82396L422.3271 176.27708Q421.7802 175.51146 421.7802 174.66771Q421.7802 173.54271 422.56146 172.77708Q423.3427 171.99583 424.5771 171.99583Q425.73334 171.99583 426.5927 172.66771Q427.62396 173.49583 427.62396 174.91771Q427.62396 176.08958 426.9677 176.83958Q426.31146 177.57396 425.23334 177.68333ZM420.99896 165.21458L421.0771 166.26146Q420.4521 166.40208 420.17084 166.65208Q419.7177 167.08958 419.7177 167.71458Q419.7177 168.21458 419.99896 168.60521Q420.37396 169.08958 421.0771 169.38646Q421.7646 169.66771 423.04584 169.68333Q422.4677 169.30833 422.18646 168.76146Q421.9052 168.19896 421.9052 167.58958Q421.9052 166.54271 422.68646 165.80833Q423.4677 165.05833 424.68646 165.05833Q425.49896 165.05833 426.2021 165.41771Q426.8896 165.76146 427.2646 166.37083Q427.62396 166.98021 427.62396 167.74583Q427.62396 169.07396 426.6552 169.90208Q425.68646 170.73021 423.4677 170.73021Q420.9677 170.73021 419.8427 169.80833Q418.85834 169.01146 418.85834 167.65208Q418.85834 166.63646 419.43646 165.99583Q419.99896 165.33958 420.99896 165.21458ZM424.7021 169.51146Q425.24896 169.51146 425.74896 169.29271Q426.23334 169.05833 426.49896 168.65208Q426.7646 168.23021 426.7646 167.76146Q426.7646 167.10521 426.23334 166.62083Q425.68646 166.13646 424.7646 166.13646Q423.87396 166.13646 423.35834 166.62083Q422.8427 167.08958 422.8427 167.80833Q422.8427 168.52708 423.35834 169.02708Q423.87396 169.51146 424.7021 169.51146ZM427.48334 160.30833L425.42084 160.30833L425.42084 164.02708L424.4521 164.02708L418.8896 160.10521L418.8896 159.24583L424.4521 159.24583L424.4521 158.08958L425.42084 158.08958L425.42084 159.24583L427.48334 159.24583L427.48334 160.30833ZM424.4521 160.30833L420.5927 160.30833L424.4521 162.99583L424.4521 160.30833Z" fill-rule="nonzero"/><path fill="#808080" d="M420.99896 189.21458L421.0771 190.26146Q420.4521 190.40208 420.17084 190.65208Q419.7177 191.08958 419.7177 191.71458Q419.7177 192.21458 419.99896 192.60521Q420.37396 193.08958 421.0771 193.38646Q421.7646 193.66771 423.04584 193.68333Q422.4677 193.30833 422.18646 192.76146Q421.9052 192.19896 421.9052 191.58958Q421.9052 190.54271 422.68646 189.80833Q423.4677 189.05833 424.68646 189.05833Q425.49896 189.05833 426.2021 189.41771Q426.8896 189.76146 427.2646 190.37083Q427.62396 190.98021 427.62396 191.74583Q427.62396 193.07396 426.6552 193.90208Q425.68646 194.73021 423.4677 194.73021Q420.9677 194.73021 419.8427 193.80833Q418.85834 193.01146 418.85834 191.65208Q418.85834 190.63646 419.43646 189.99583Q419.99896 189.33958 420.99896 189.21458ZM424.7021 193.51146Q425.24896 193.51146 425.74896 193.29271Q426.23334 193.05833 426.49896 192.65208Q426.7646 192.23021 426.7646 191.76146Q426.7646 191.10521 426.23334 190.62083Q425.68646 190.13646 424.7646 190.13646Q423.87396 190.13646 423.35834 190.62083Q422.8427 191.08958 422.8427 191.80833Q422.8427 192.52708 423.35834 193.02708Q423.87396 193.51146 424.7021 193.51146ZM427.48334 187.08958L426.2802 187.08958L426.2802 185.88646L427.48334 185.88646L427.48334 187.08958ZM423.24896 184.68333Q421.7177 184.68333 420.79584 184.37083Q419.85834 184.05833 419.35834 183.44896Q418.85834 182.82396 418.85834 181.88646Q418.85834 181.19896 419.1396 180.68333Q419.42084 180.15208 419.9521 179.80833Q420.4677 179.46458 421.2177 179.27708Q421.9677 179.08958 423.24896 179.08958Q424.7646 179.08958 425.68646 179.40208Q426.60834 179.69896 427.12396 180.32396Q427.62396 180.93333 427.62396 181.88646Q427.62396 183.12083 426.73334 183.83958Q425.67084 184.68333 423.24896 184.68333ZM423.24896 183.60521Q425.35834 183.60521 426.06146 183.10521Q426.7646 182.60521 426.7646 181.88646Q426.7646 181.15208 426.06146 180.66771Q425.35834 180.16771 423.24896 180.16771Q421.12396 180.16771 420.43646 180.66771Q419.73334 181.15208 419.73334 181.90208Q419.73334 182.62083 420.3427 183.05833Q421.12396 183.60521 423.24896 183.60521ZM425.23334 177.68333L425.1396 176.57396Q425.9521 176.44896 426.35834 176.01146Q426.7646 175.55833 426.7646 174.91771Q426.7646 174.16771 426.18646 173.63646Q425.60834 173.10521 424.67084 173.10521Q423.7646 173.10521 423.24896 173.62083Q422.7177 174.12083 422.7177 174.94896Q422.7177 175.44896 422.9521 175.87083Q423.18646 176.27708 423.54584 176.51146L423.42084 177.49583L419.0146 176.66771L419.0146 172.38646L420.0146 172.38646L420.0146 175.82396L422.3271 176.27708Q421.7802 175.51146 421.7802 174.66771Q421.7802 173.54271 422.56146 172.77708Q423.3427 171.99583 424.5771 171.99583Q425.73334 171.99583 426.5927 172.66771Q427.62396 173.49583 427.62396 174.91771Q427.62396 176.08958 426.9677 176.83958Q426.31146 177.57396 425.23334 177.68333ZM420.99896 165.21458L421.0771 166.26146Q420.4521 166.40208 420.17084 166.65208Q419.7177 167.08958 419.7177 167.71458Q419.7177 168.21458 419.99896 168.60521Q420.37396 169.08958 421.0771 169.38646Q421.7646 169.66771 423.04584 169.68333Q422.4677 169.30833 422.18646 168.76146Q421.9052 168.19896 421.9052 167.58958Q421.9052 166.54271 422.68646 165.80833Q423.4677 165.05833 424.68646 165.05833Q425.49896 165.05833 426.2021 165.41771Q426.8896 165.76146 427.2646 166.37083Q427.62396 166.98021 427.62396 167.74583Q427.62396 169.07396 426.6552 169.90208Q425.68646 170.73021 423.4677 170.73021Q420.9677 170.73021 419.8427 169.80833Q418.85834 169.01146 418.85834 167.65208Q418.85834 166.63646 419.43646 165.99583Q419.99896 165.33958 420.99896 165.21458ZM424.7021 169.51146Q425.24896 169.51146 425.74896 169.29271Q426.23334 169.05833 426.49896 168.65208Q426.7646 168.23021 426.7646 167.76146Q426.7646 167.10521 426.23334 166.62083Q425.68646 166.13646 424.7646 166.13646Q423.87396 166.13646 423.35834 166.62083Q422.8427 167.08958 422.8427 167.80833Q422.8427 168.52708 423.35834 169.02708Q423.87396 169.51146 424.7021 169.51146ZM427.48334 160.30833L425.42084 160.30833L425.42084 164.02708L424.4521 164.02708L418.8896 160.10521L418.8896 159.24583L424.4521 159.24583L424.4521 158.08958L425.42084 158.08958L425.42084 159.24583L427.48334 159.24583L427.48334 160.30833ZM424.4521 160.30833L420.5927 160.30833L424.4521 162.99583L424.4521 160.30833Z" fill-rule="nonzero"/><path stroke="#ffffff" stroke-width="3.0" stroke-linejoin="round" stroke-linecap="round" d="M595.45 190.71458L595.45 191.76146L588.73126 191.76146Q589.09064 192.15208 589.46564 192.77708Q589.825 193.38646 589.9969 193.87083L588.98126 193.87083Q588.5594 192.99583 587.98126 192.33958Q587.3875 191.66771 586.825 191.38646L586.825 190.71458L595.45 190.71458ZM595.45 183.71458L595.45 184.76146L588.73126 184.76146Q589.09064 185.15208 589.46564 185.77708Q589.825 186.38646 589.9969 186.87083L588.98126 186.87083Q588.5594 185.99583 587.98126 185.33958Q587.3875 184.66771 586.825 184.38646L586.825 183.71458L595.45 183.71458ZM595.45 180.08958L594.2469 180.08958L594.2469 178.88646L595.45 178.88646L595.45 180.08958ZM593.2 177.68333L593.10626 176.57396Q593.91876 176.44896 594.325 176.01146Q594.73126 175.55833 594.73126 174.91771Q594.73126 174.16771 594.15314 173.63646Q593.575 173.10521 592.6375 173.10521Q591.73126 173.10521 591.21564 173.62083Q590.6844 174.12083 590.6844 174.94896Q590.6844 175.44896 590.91876 175.87083Q591.15314 176.27708 591.5125 176.51146L591.3875 177.49583L586.98126 176.66771L586.98126 172.38646L587.98126 172.38646L587.98126 175.82396L590.29376 176.27708Q589.7469 175.51146 589.7469 174.66771Q589.7469 173.54271 590.52814 172.77708Q591.3094 171.99583 592.54376 171.99583Q593.7 171.99583 594.5594 172.66771Q595.59064 173.49583 595.59064 174.91771Q595.59064 176.08958 594.9344 176.83958Q594.27814 177.57396 593.2 177.68333ZM595.45 167.30833L593.3875 167.30833L593.3875 171.02708L592.41876 171.02708L586.85626 167.10521L586.85626 166.24583L592.41876 166.24583L592.41876 165.08958L593.3875 165.08958L593.3875 166.24583L595.45 166.24583L595.45 167.30833ZM592.41876 167.30833L588.5594 167.30833L592.41876 169.99583L592.41876 167.30833ZM587.98126 163.62083L586.96564 163.62083L586.96564 158.05833L587.79376 158.05833Q588.66876 158.87083 590.1219 159.68333Q591.5594 160.48021 593.09064 160.91771Q594.16876 161.24583 595.45 161.32396L595.45 162.41771Q594.4344 162.40208 592.9969 162.02708Q591.5594 161.63646 590.23126 160.93333Q588.90314 160.21458 587.98126 159.40208L587.98126 163.62083Z" fill-rule="nonzero"/><path fill="#808080" d="M595.45 190.71458L595.45 191.76146L588.73126 191.76146Q589.09064 192.15208 589.46564 192.77708Q589.825 193.38646 589.9969 193.87083L588.98126 193.87083Q588.5594 192.99583 587.98126 192.33958Q587.3875 191.66771 586.825 191.38646L586.825 190.71458L595.45 190.71458ZM595.45 183.71458L595.45 184.76146L588.73126 184.76146Q589.09064 185.15208 589.46564 185.77708Q589.825 186.38646 589.9969 186.87083L588.98126 186.87083Q588.5594 185.99583 587.98126 185.33958Q587.3875 184.66771 586.825 184.38646L586.825 183.71458L595.45 183.71458ZM595.45 180.08958L594.2469 180.08958L594.2469 178.88646L595.45 178.88646L595.45 180.08958ZM593.2 177.68333L593.10626 176.57396Q593.91876 176.44896 594.325 176.01146Q594.73126 175.55833 594.73126 174.91771Q594.73126 174.16771 594.15314 173.63646Q593.575 173.10521 592.6375 173.10521Q591.73126 173.10521 591.21564 173.62083Q590.6844 174.12083 590.6844 174.94896Q590.6844 175.44896 590.91876 175.87083Q591.15314 176.27708 591.5125 176.51146L591.3875 177.49583L586.98126 176.66771L586.98126 172.38646L587.98126 172.38646L587.98126 175.82396L590.29376 176.27708Q589.7469 175.51146 589.7469 174.66771Q589.7469 173.54271 590.52814 172.77708Q591.3094 171.99583 592.54376 171.99583Q593.7 171.99583 594.5594 172.66771Q595.59064 173.49583 595.59064 174.91771Q595.59064 176.08958 594.9344 176.83958Q594.27814 177.57396 593.2 177.68333ZM595.45 167.30833L593.3875 167.30833L593.3875 171.02708L592.41876 171.02708L586.85626 167.10521L586.85626 166.24583L592.41876 166.24583L592.41876 165.08958L593.3875 165.08958L593.3875 166.24583L595.45 166.24583L595.45 167.30833ZM592.41876 167.30833L588.5594 167.30833L592.41876 169.99583L592.41876 167.30833ZM587.98126 163.62083L586.96564 163.62083L586.96564 158.05833L587.79376 158.05833Q588.66876 158.87083 590.1219 159.68333Q591.5594 160.48021 593.09064 160.91771Q594.16876 161.24583 595.45 161.32396L595.45 162.41771Q594.4344 162.40208 592.9969 162.02708Q591.5594 161.63646 590.23126 160.93333Q588.90314 160.21458 587.98126 159.40208L587.98126 163.62083Z" fill-rule="nonzero"/><path fill="#000000" d="M279.95312 349.45L279.95312 340.85626L286.15625 340.85626L286.15625 341.8719L281.09375 341.8719L281.09375 344.4969L285.84375 344.4969L285.84375 345.5125L281.09375 345.5125L281.09375 348.4344L286.35938 348.4344L286.35938 349.45L279.95312 349.45ZM287.76562 349.45L287.76562 340.85626L288.82812 340.85626L288.82812 349.45L287.76562 349.45ZM295.04688 347.45L296.14062 347.575Q295.89062 348.52814 295.1875 349.0594Q294.48438 349.59064 293.40625 349.59064Q292.04688 349.59064 291.23438 348.7469Q290.4375 347.90314 290.4375 346.3875Q290.4375 344.825 291.25 343.96564Q292.0625 343.09064 293.34375 343.09064Q294.59375 343.09064 295.375 343.9344Q296.17188 344.77814 296.17188 346.325Q296.17188 346.41876 296.17188 346.60626L291.53125 346.60626Q291.59375 347.6375 292.10938 348.1844Q292.625 348.71564 293.40625 348.71564Q293.98438 348.71564 294.39062 348.41876Q294.8125 348.10626 295.04688 347.45ZM291.59375 345.7469L295.0625 345.7469Q295.0 344.95 294.67188 344.5594Q294.15625 343.95 293.35938 343.95Q292.625 343.95 292.125 344.4344Q291.64062 344.91876 291.59375 345.7469ZM297.79688 349.45L297.79688 343.23126L298.73438 343.23126L298.73438 344.10626Q299.03125 343.6375 299.51562 343.3719Q300.0 343.09064 300.625 343.09064Q301.3125 343.09064 301.75 343.3719Q302.20312 343.65314 302.375 344.16876Q303.125 343.09064 304.29688 343.09064Q305.23438 343.09064 305.71875 343.60626Q306.21875 344.10626 306.21875 345.1844L306.21875 349.45L305.17188 349.45L305.17188 345.52814Q305.17188 344.90314 305.0625 344.6219Q304.96875 344.34064 304.70312 344.16876Q304.4375 343.9969 304.0625 343.9969Q303.40625 343.9969 302.96875 344.4344Q302.54688 344.8719 302.54688 345.84064L302.54688 349.45L301.48438 349.45L301.48438 345.40314Q301.48438 344.7 301.21875 344.35626Q300.96875 343.9969 300.39062 343.9969Q299.9375 343.9969 299.5625 344.23126Q299.1875 344.46564 299.01562 344.91876Q298.84375 345.3719 298.84375 346.21564L298.84375 349.45L297.79688 349.45ZM313.04688 347.45L314.14062 347.575Q313.89062 348.52814 313.1875 349.0594Q312.48438 349.59064 311.40625 349.59064Q310.04688 349.59064 309.23438 348.7469Q308.4375 347.90314 308.4375 346.3875Q308.4375 344.825 309.25 343.96564Q310.0625 343.09064 311.34375 343.09064Q312.59375 343.09064 313.375 343.9344Q314.17188 344.77814 314.17188 346.325Q314.17188 346.41876 314.17188 346.60626L309.53125 346.60626Q309.59375 347.6375 310.10938 348.1844Q310.625 348.71564 311.40625 348.71564Q311.98438 348.71564 312.39062 348.41876Q312.8125 348.10626 313.04688 347.45ZM309.59375 345.7469L313.0625 345.7469Q313.0 344.95 312.67188 344.5594Q312.15625 343.95 311.35938 343.95Q310.625 343.95 310.125 344.4344Q309.64062 344.91876 309.59375 345.7469ZM315.79688 349.45L315.79688 343.23126L316.73438 343.23126L316.73438 344.10626Q317.42188 343.09064 318.71875 343.09064Q319.28125 343.09064 319.75 343.29376Q320.23438 343.4969 320.46875 343.825Q320.70312 344.15314 320.79688 344.59064Q320.84375 344.8875 320.84375 345.6219L320.84375 349.45L319.79688 349.45L319.79688 345.66876Q319.79688 345.0125 319.67188 344.7Q319.54688 344.3875 319.23438 344.2Q318.92188 343.9969 318.5 343.9969Q317.82812 343.9969 317.32812 344.4344Q316.84375 344.85626 316.84375 346.04376L316.84375 349.45L315.79688 349.45ZM325.09375 348.5125L325.25 349.4344Q324.79688 349.52814 324.45312 349.52814Q323.875 349.52814 323.5625 349.35626Q323.25 349.16876 323.10938 348.8719Q322.98438 348.575 322.98438 347.6219L322.98438 344.04376L322.21875 344.04376L322.21875 343.23126L322.98438 343.23126L322.98438 341.6844L324.03125 341.0594L324.03125 343.23126L325.09375 343.23126L325.09375 344.04376L324.03125 344.04376L324.03125 347.6844Q324.03125 348.1375 324.07812 348.2625Q324.14062 348.3875 324.26562 348.46564Q324.39062 348.54376 324.625 348.54376Q324.8125 348.54376 325.09375 348.5125ZM325.375 347.59064L326.40625 347.4344Q326.5 348.0594 326.89062 348.3875Q327.29688 348.71564 328.03125 348.71564Q328.75 348.71564 329.09375 348.4344Q329.45312 348.1375 329.45312 347.73126Q329.45312 347.3719 329.14062 347.16876Q328.92188 347.02814 328.0625 346.8094Q326.90625 346.5125 326.45312 346.3094Q326.01562 346.09064 325.78125 345.71564Q325.54688 345.34064 325.54688 344.8719Q325.54688 344.46564 325.73438 344.10626Q325.92188 343.7469 326.25 343.5125Q326.5 343.34064 326.92188 343.21564Q327.34375 343.09064 327.84375 343.09064Q328.5625 343.09064 329.10938 343.3094Q329.67188 343.5125 329.9375 343.8719Q330.20312 344.23126 330.29688 344.825L329.26562 344.96564Q329.20312 344.4969 328.85938 344.23126Q328.53125 343.95 327.90625 343.95Q327.1875 343.95 326.875 344.2Q326.5625 344.4344 326.5625 344.7625Q326.5625 344.96564 326.6875 345.1219Q326.82812 345.29376 327.09375 345.40314Q327.25 345.46564 328.03125 345.66876Q329.15625 345.98126 329.59375 346.16876Q330.03125 346.35626 330.28125 346.71564Q330.53125 347.075 330.53125 347.6219Q330.53125 348.15314 330.21875 348.6219Q329.92188 349.075 329.34375 349.34064Q328.76562 349.59064 328.03125 349.59064Q326.8125 349.59064 326.17188 349.09064Q325.54688 348.575 325.375 347.59064ZM335.79688 342.075L335.79688 340.85626L336.85938 340.85626L336.85938 342.075L335.79688 342.075ZM335.79688 349.45L335.79688 343.23126L336.85938 343.23126L336.85938 349.45L335.79688 349.45ZM338.79688 349.45L338.79688 343.23126L339.73438 343.23126L339.73438 344.10626Q340.42188 343.09064 341.71875 343.09064Q342.28125 343.09064 342.75 343.29376Q343.23438 343.4969 343.46875 343.825Q343.70312 344.15314 343.79688 344.59064Q343.84375 344.8875 343.84375 345.6219L343.84375 349.45L342.79688 349.45L342.79688 345.66876Q342.79688 345.0125 342.67188 344.7Q342.54688 344.3875 342.23438 344.2Q341.92188 343.9969 341.5 343.9969Q340.82812 343.9969 340.32812 344.4344Q339.84375 344.85626 339.84375 346.04376L339.84375 349.45L338.79688 349.45ZM345.375 347.59064L346.40625 347.4344Q346.5 348.0594 346.89062 348.3875Q347.29688 348.71564 348.03125 348.71564Q348.75 348.71564 349.09375 348.4344Q349.45312 348.1375 349.45312 347.73126Q349.45312 347.3719 349.14062 347.16876Q348.92188 347.02814 348.0625 346.8094Q346.90625 346.5125 346.45312 346.3094Q346.01562 346.09064 345.78125 345.71564Q345.54688 345.34064 345.54688 344.8719Q345.54688 344.46564 345.73438 344.10626Q345.92188 343.7469 346.25 343.5125Q346.5 343.34064 346.92188 343.21564Q347.34375 343.09064 347.84375 343.09064Q348.5625 343.09064 349.10938 343.3094Q349.67188 343.5125 349.9375 343.8719Q350.20312 344.23126 350.29688 344.825L349.26562 344.96564Q349.20312 344.4969 348.85938 344.23126Q348.53125 343.95 347.90625 343.95Q347.1875 343.95 346.875 344.2Q346.5625 344.4344 346.5625 344.7625Q346.5625 344.96564 346.6875 345.1219Q346.82812 345.29376 347.09375 345.40314Q347.25 345.46564 348.03125 345.66876Q349.15625 345.98126 349.59375 346.16876Q350.03125 346.35626 350.28125 346.71564Q350.53125 347.075 350.53125 347.6219Q350.53125 348.15314 350.21875 348.6219Q349.92188 349.075 349.34375 349.34064Q348.76562 349.59064 348.03125 349.59064Q346.8125 349.59064 346.17188 349.09064Q345.54688 348.575 345.375 347.59064ZM357.04688 347.45L358.14062 347.575Q357.89062 348.52814 357.1875 349.0594Q356.48438 349.59064 355.40625 349.59064Q354.04688 349.59064 353.23438 348.7469Q352.4375 347.90314 352.4375 346.3875Q352.4375 344.825 353.25 343.96564Q354.0625 343.09064 355.34375 343.09064Q356.59375 343.09064 357.375 343.9344Q358.17188 344.77814 358.17188 346.325Q358.17188 346.41876 358.17188 346.60626L353.53125 346.60626Q353.59375 347.6375 354.10938 348.1844Q354.625 348.71564 355.40625 348.71564Q355.98438 348.71564 356.39062 348.41876Q356.8125 348.10626 357.04688 347.45ZM353.59375 345.7469L357.0625 345.7469Q357.0 344.95 356.67188 344.5594Q356.15625 343.95 355.35938 343.95Q354.625 343.95 354.125 344.4344Q353.64062 344.91876 353.59375 345.7469ZM359.78125 349.45L359.78125 343.23126L360.73438 343.23126L360.73438 344.16876Q361.09375 343.5125 361.39062 343.3094Q361.70312 343.09064 362.07812 343.09064Q362.60938 343.09064 363.15625 343.41876L362.79688 344.40314Q362.40625 344.16876 362.03125 344.16876Q361.67188 344.16876 361.39062 344.3875Q361.125 344.59064 361.01562 344.96564Q360.82812 345.52814 360.82812 346.1844L360.82812 349.45L359.78125 349.45ZM366.09375 348.5125L366.25 349.4344Q365.79688 349.52814 365.45312 349.52814Q364.875 349.52814 364.5625 349.35626Q364.25 349.16876 364.10938 348.8719Q363.98438 348.575 363.98438 347.6219L363.98438 344.04376L363.21875 344.04376L363.21875 343.23126L363.98438 343.23126L363.98438 341.6844L365.03125 341.0594L365.03125 343.23126L366.09375 343.23126L366.09375 344.04376L365.03125 344.04376L365.03125 347.6844Q365.03125 348.1375 365.07812 348.2625Q365.14062 348.3875 365.26562 348.46564Q365.39062 348.54376 365.625 348.54376Q365.8125 348.54376 366.09375 348.5125ZM371.04688 347.45L372.14062 347.575Q371.89062 348.52814 371.1875 349.0594Q370.48438 349.59064 369.40625 349.59064Q368.04688 349.59064 367.23438 348.7469Q366.4375 347.90314 366.4375 346.3875Q366.4375 344.825 367.25 343.96564Q368.0625 343.09064 369.34375 343.09064Q370.59375 343.09064 371.375 343.9344Q372.17188 344.77814 372.17188 346.325Q372.17188 346.41876 372.17188 346.60626L367.53125 346.60626Q367.59375 347.6375 368.10938 348.1844Q368.625 348.71564 369.40625 348.71564Q369.98438 348.71564 370.39062 348.41876Q370.8125 348.10626 371.04688 347.45ZM367.59375 345.7469L371.0625 345.7469Q371.0 344.95 370.67188 344.5594Q370.15625 343.95 369.35938 343.95Q368.625 343.95 368.125 344.4344Q367.64062 344.91876 367.59375 345.7469ZM377.82812 349.45L377.82812 348.66876Q377.23438 349.59064 376.09375 349.59064Q375.34375 349.59064 374.71875 349.1844Q374.09375 348.7625 373.75 348.02814Q373.40625 347.29376 373.40625 346.34064Q373.40625 345.41876 373.71875 344.65314Q374.03125 343.8875 374.65625 343.4969Q375.28125 343.09064 376.04688 343.09064Q376.60938 343.09064 377.04688 343.325Q377.48438 343.5594 377.76562 343.9344L377.76562 340.85626L378.8125 340.85626L378.8125 349.45L377.82812 349.45ZM374.5 346.34064Q374.5 347.54376 375.0 348.1375Q375.5 348.71564 376.1875 348.71564Q376.875 348.71564 377.35938 348.15314Q377.84375 347.59064 377.84375 346.4344Q377.84375 345.15314 377.34375 344.5594Q376.85938 343.96564 376.14062 343.96564Q375.4375 343.96564 374.96875 344.54376Q374.5 345.10626 374.5 346.34064Z" fill-rule="nonzero"/><path fill="#000000" d="M29.550013 232.69896L20.956263 229.40208L20.956263 228.18333L29.550013 224.66771L29.550013 225.94896L26.940638 226.96458L26.940638 230.54271L29.550013 231.49583L29.550013 232.69896ZM26.018763 230.21458L26.018763 227.30833L23.643763 228.19896Q22.565638 228.62083 21.862513 228.80833Q22.690638 228.98021 23.503138 229.27708L26.018763 230.21458ZM29.550013 223.16771L23.331263 225.52708L23.331263 224.41771L27.050013 223.07396Q27.659388 222.87083 28.300013 222.68333Q27.815638 222.54271 27.128138 222.29271L23.331263 220.90208L23.331263 219.82396L29.550013 222.18333L29.550013 223.16771ZM27.550013 215.63646L27.675013 214.54271Q28.628138 214.79271 29.159388 215.49583Q29.690638 216.19896 29.690638 217.27708Q29.690638 218.63646 28.846888 219.44896Q28.003138 220.24583 26.487513 220.24583Q24.925013 220.24583 24.065638 219.43333Q23.190638 218.62083 23.190638 217.33958Q23.190638 216.08958 24.034388 215.30833Q24.878138 214.51146 26.425013 214.51146Q26.518763 214.51146 26.706263 214.51146L26.706263 219.15208Q27.737513 219.08958 28.284388 218.57396Q28.815638 218.05833 28.815638 217.27708Q28.815638 216.69896 28.518763 216.29271Q28.206263 215.87083 27.550013 215.63646ZM25.846888 219.08958L25.846888 215.62083Q25.050013 215.68333 24.659388 216.01146Q24.050013 216.52708 24.050013 217.32396Q24.050013 218.05833 24.534388 218.55833Q25.018763 219.04271 25.846888 219.08958ZM29.550013 212.90208L23.331263 212.90208L23.331263 211.94896L24.268763 211.94896Q23.612513 211.58958 23.409388 211.29271Q23.190638 210.98021 23.190638 210.60521Q23.190638 210.07396 23.518763 209.52708L24.503138 209.88646Q24.268763 210.27708 24.268763 210.65208Q24.268763 211.01146 24.487513 211.29271Q24.690638 211.55833 25.065638 211.66771Q25.628138 211.85521 26.284388 211.85521L29.550013 211.85521L29.550013 212.90208ZM28.784388 204.82396Q29.284388 205.41771 29.487513 205.96458Q29.690638 206.49583 29.690638 207.12083Q29.690638 208.15208 29.190638 208.69896Q28.690638 209.24583 27.909388 209.24583Q27.456263 209.24583 27.081263 209.04271Q26.690638 208.83958 26.471888 208.49583Q26.237513 208.15208 26.128138 207.73021Q26.034388 207.43333 25.956263 206.79271Q25.815638 205.52708 25.596888 204.91771Q25.378138 204.91771 25.331263 204.91771Q24.675013 204.91771 24.409388 205.21458Q24.065638 205.62083 24.065638 206.41771Q24.065638 207.15208 24.331263 207.51146Q24.581263 207.87083 25.237513 208.04271L25.096888 209.07396Q24.440638 208.93333 24.034388 208.60521Q23.628138 208.27708 23.409388 207.66771Q23.190638 207.05833 23.190638 206.26146Q23.190638 205.46458 23.378138 204.96458Q23.565638 204.46458 23.846888 204.23021Q24.128138 203.99583 24.565638 203.90208Q24.831263 203.85521 25.534388 203.85521L26.940638 203.85521Q28.409388 203.85521 28.800013 203.79271Q29.190638 203.71458 29.550013 203.51146L29.550013 204.62083Q29.221888 204.77708 28.784388 204.82396ZM26.425013 204.91771Q26.659388 205.49583 26.831263 206.63646Q26.925013 207.29271 27.050013 207.55833Q27.159388 207.82396 27.378138 207.98021Q27.596888 208.12083 27.878138 208.12083Q28.300013 208.12083 28.581263 207.80833Q28.862513 207.48021 28.862513 206.87083Q28.862513 206.26146 28.596888 205.79271Q28.331263 205.30833 27.862513 205.08958Q27.503138 204.91771 26.815638 204.91771L26.425013 204.91771ZM30.065638 202.08958L30.221888 201.05833Q30.690638 200.99583 30.909388 200.69896Q31.206263 200.30833 31.206263 199.63646Q31.206263 198.90208 30.909388 198.51146Q30.612513 198.10521 30.096888 197.96458Q29.768763 197.87083 28.737513 197.88646Q29.550013 198.57396 29.550013 199.60521Q29.550013 200.88646 28.628138 201.58958Q27.690638 202.29271 26.409388 202.29271Q25.518763 202.29271 24.768763 201.98021Q24.003138 201.65208 23.596888 201.04271Q23.190638 200.43333 23.190638 199.60521Q23.190638 198.49583 24.081263 197.77708L23.331263 197.77708L23.331263 196.80833L28.706263 196.80833Q30.159388 196.80833 30.768763 197.10521Q31.378138 197.40208 31.721888 198.04271Q32.08126 198.68333 32.08126 199.62083Q32.08126 200.73021 31.581263 201.41771Q31.081263 202.10521 30.065638 202.08958ZM26.331263 201.21458Q27.550013 201.21458 28.112513 200.73021Q28.675013 200.24583 28.675013 199.51146Q28.675013 198.77708 28.112513 198.29271Q27.550013 197.79271 26.362513 197.79271Q25.221888 197.79271 24.643763 198.30833Q24.065638 198.80833 24.065638 199.52708Q24.065638 200.23021 24.643763 200.73021Q25.206263 201.21458 26.331263 201.21458ZM27.550013 190.63646L27.675013 189.54271Q28.628138 189.79271 29.159388 190.49583Q29.690638 191.19896 29.690638 192.27708Q29.690638 193.63646 28.846888 194.44896Q28.003138 195.24583 26.487513 195.24583Q24.925013 195.24583 24.065638 194.43333Q23.190638 193.62083 23.190638 192.33958Q23.190638 191.08958 24.034388 190.30833Q24.878138 189.51146 26.425013 189.51146Q26.518763 189.51146 26.706263 189.51146L26.706263 194.15208Q27.737513 194.08958 28.284388 193.57396Q28.815638 193.05833 28.815638 192.27708Q28.815638 191.69896 28.518763 191.29271Q28.206263 190.87083 27.550013 190.63646ZM25.846888 194.08958L25.846888 190.62083Q25.050013 190.68333 24.659388 191.01146Q24.050013 191.52708 24.050013 192.32396Q24.050013 193.05833 24.534388 193.55833Q25.018763 194.04271 25.846888 194.08958ZM29.550013 182.57396L21.971888 182.57396L21.971888 185.40208L20.956263 185.40208L20.956263 178.58958L21.971888 178.58958L21.971888 181.43333L29.550013 181.43333L29.550013 182.57396ZM22.175013 177.88646L20.956263 177.88646L20.956263 176.82396L22.175013 176.82396L22.175013 177.88646ZM29.550013 177.88646L23.331263 177.88646L23.331263 176.82396L29.550013 176.82396L29.550013 177.88646ZM29.550013 174.88646L23.331263 174.88646L23.331263 173.94896L24.206263 173.94896Q23.737513 173.65208 23.471888 173.16771Q23.190638 172.68333 23.190638 172.05833Q23.190638 171.37083 23.471888 170.93333Q23.753138 170.48021 24.268763 170.30833Q23.190638 169.55833 23.190638 168.38646Q23.190638 167.44896 23.706263 166.96458Q24.206263 166.46458 25.284388 166.46458L29.550013 166.46458L29.550013 167.51146L25.628138 167.51146Q25.003138 167.51146 24.721888 167.62083Q24.440638 167.71458 24.268763 167.98021Q24.096888 168.24583 24.096888 168.62083Q24.096888 169.27708 24.534388 169.71458Q24.971888 170.13646 25.940638 170.13646L29.550013 170.13646L29.550013 171.19896L25.503138 171.19896Q24.800013 171.19896 24.456263 171.46458Q24.096888 171.71458 24.096888 172.29271Q24.096888 172.74583 24.331263 173.12083Q24.565638 173.49583 25.018763 173.66771Q25.471888 173.83958 26.315638 173.83958L29.550013 173.83958L29.550013 174.88646ZM27.550013 159.63646L27.675013 158.54271Q28.628138 158.79271 29.159388 159.49583Q29.690638 160.19896 29.690638 161.27708Q29.690638 162.63646 28.846888 163.44896Q28.003138 164.24583 26.487513 164.24583Q24.925013 164.24583 24.065638 163.43333Q23.190638 162.62083 23.190638 161.33958Q23.190638 160.08958 24.034388 159.30833Q24.878138 158.51146 26.425013 158.51146Q26.518763 158.51146 26.706263 158.51146L26.706263 163.15208Q27.737513 163.08958 28.284388 162.57396Q28.815638 162.05833 28.815638 161.27708Q28.815638 160.69896 28.518763 160.29271Q28.206263 159.87083 27.550013 159.63646ZM25.846888 163.08958L25.846888 159.62083Q25.050013 159.68333 24.659388 160.01146Q24.050013 160.52708 24.050013 161.32396Q24.050013 162.05833 24.534388 162.55833Q25.018763 163.04271 25.846888 163.08958ZM32.08126 151.87083Q30.971888 152.74583 29.503138 153.35521Q28.018763 153.94896 26.440638 153.94896Q25.050013 153.94896 23.768763 153.51146Q22.284388 152.98021 20.815638 151.87083L20.815638 151.12083Q22.034388 151.82396 22.550013 152.05833Q23.362513 152.41771 24.237513 152.62083Q25.331263 152.87083 26.440638 152.87083Q29.268763 152.87083 32.08126 151.12083L32.08126 151.87083ZM23.331263 144.71458L29.550013 144.71458L29.550013 145.66771L28.815638 145.66771Q29.284388 145.96458 29.456263 146.26146Q29.690638 146.66771 29.690638 147.21458Q29.690638 147.69896 29.503138 148.07396Q29.362513 148.35521 28.925013 148.69896L31.940638 148.69896L31.940638 149.74583L23.331263 149.74583L23.331263 148.69896L25.956263 148.69896Q27.393763 148.69896 27.831263 148.55833Q28.253138 148.40208 28.503138 148.05833Q28.737513 147.71458 28.737513 147.26146Q28.737513 146.79271 28.487513 146.43333Q28.221888 146.05833 27.815638 145.91771Q27.409388 145.76146 25.987513 145.76146L23.331263 145.76146L23.331263 144.71458ZM27.690638 143.30833L27.534388 142.27708Q28.159388 142.18333 28.487513 141.79271Q28.815638 141.38646 28.815638 140.65208Q28.815638 139.93333 28.534388 139.58958Q28.237513 139.23021 27.831263 139.23021Q27.471888 139.23021 27.268763 139.54271Q27.128138 139.76146 26.909388 140.62083Q26.612513 141.77708 26.409388 142.23021Q26.190638 142.66771 25.815638 142.90208Q25.440638 143.13646 24.971888 143.13646Q24.565638 143.13646 24.206263 142.94896Q23.846888 142.76146 23.612513 142.43333Q23.440638 142.18333 23.315638 141.76146Q23.190638 141.33958 23.190638 140.83958Q23.190638 140.12083 23.409388 139.57396Q23.612513 139.01146 23.971888 138.74583Q24.331263 138.48021 24.925013 138.38646L25.065638 139.41771Q24.596888 139.48021 24.331263 139.82396Q24.050013 140.15208 24.050013 140.77708Q24.050013 141.49583 24.300013 141.80833Q24.534388 142.12083 24.862513 142.12083Q25.065638 142.12083 25.221888 141.99583Q25.393763 141.85521 25.503138 141.58958Q25.565638 141.43333 25.768763 140.65208Q26.081263 139.52708 26.268763 139.08958Q26.456263 138.65208 26.815638 138.40208Q27.175013 138.15208 27.721888 138.15208Q28.253138 138.15208 28.721888 138.46458Q29.175013 138.76146 29.440638 139.33958Q29.690638 139.91771 29.690638 140.65208Q29.690638 141.87083 29.190638 142.51146Q28.675013 143.13646 27.690638 143.30833ZM32.08126 135.19896L32.08126 135.94896Q29.268763 134.19896 26.440638 134.19896Q25.346888 134.19896 24.253138 134.44896Q23.378138 134.65208 22.565638 135.01146Q22.050013 135.24583 20.815638 135.94896L20.815638 135.19896Q22.284388 134.10521 23.768763 133.57396Q25.050013 133.12083 26.440638 133.12083Q28.018763 133.12083 29.503138 133.73021Q30.971888 134.33958 32.08126 135.19896Z" fill-rule="nonzero"/><path fill="#000000" d="M65.05 300.21564Q65.05 298.6844 65.3625 297.7625Q65.675 296.825 66.28438 296.325Q66.90938 295.825 67.84688 295.825Q68.53438 295.825 69.05 296.10626Q69.58125 296.3875 69.925 296.91876Q70.26875 297.4344 70.45625 298.1844Q70.64375 298.9344 70.64375 300.21564Q70.64375 301.73126 70.33125 302.65314Q70.03438 303.575 69.40938 304.09064Q68.8 304.59064 67.84688 304.59064Q66.6125 304.59064 65.89375 303.7Q65.05 302.6375 65.05 300.21564ZM66.12813 300.21564Q66.12813 302.325 66.62813 303.02814Q67.12813 303.73126 67.84688 303.73126Q68.58125 303.73126 69.06563 303.02814Q69.56563 302.325 69.56563 300.21564Q69.56563 298.09064 69.06563 297.40314Q68.58125 296.7 67.83125 296.7Q67.1125 296.7 66.675 297.3094Q66.12813 298.09064 66.12813 300.21564Z" fill-rule="nonzero"/><path fill="#000000" d="M70.59688 262.01215L70.59688 263.02777L64.90938 263.02777Q64.90938 262.65277 65.03438 262.2934Q65.25313 261.71527 65.72188 261.15277Q66.20625 260.59027 67.1125 259.8559Q68.51875 258.69965 69.00313 258.02777Q69.50313 257.3559 69.50313 256.76215Q69.50313 256.13715 69.05 255.71527Q68.59688 255.27777 67.87813 255.27777Q67.1125 255.27777 66.65938 255.7309Q66.20625 256.18402 66.19063 256.99652L65.1125 256.88715Q65.22188 255.6684 65.94063 255.0434Q66.675 254.40277 67.90938 254.40277Q69.14375 254.40277 69.8625 255.09027Q70.58125 255.77777 70.58125 256.7934Q70.58125 257.30902 70.3625 257.80902Q70.15938 258.2934 69.65938 258.8559Q69.175 259.40277 68.05 260.3559Q67.09688 261.15277 66.81563 261.44965Q66.55 261.7309 66.37813 262.01215L70.59688 262.01215Z" fill-rule="nonzero"/><path fill="#000000" d="M68.425 221.60556L68.425 219.54306L64.70625 219.54306L64.70625 218.57431L68.62813 213.01181L69.4875 213.01181L69.4875 218.57431L70.64375 218.57431L70.64375 219.54306L69.4875 219.54306L69.4875 221.60556L68.425 221.60556ZM68.425 218.57431L68.425 214.71494L65.7375 218.57431L68.425 218.57431Z" fill-rule="nonzero"/><path fill="#000000" d="M70.51875 173.69896L69.47188 173.77708Q69.33125 173.15208 69.08125 172.87083Q68.64375 172.41771 68.01875 172.41771Q67.51875 172.41771 67.12813 172.69896Q66.64375 173.07396 66.34688 173.77708Q66.06563 174.46458 66.05 175.74583Q66.425 175.16771 66.97188 174.88646Q67.53438 174.60521 68.14375 174.60521Q69.19063 174.60521 69.925 175.38646Q70.675 176.16771 70.675 177.38646Q70.675 178.19896 70.31563 178.90208Q69.97188 179.58958 69.3625 179.96458Q68.75313 180.32396 67.9875 180.32396Q66.65938 180.32396 65.83125 179.35521Q65.00313 178.38646 65.00313 176.16771Q65.00313 173.66771 65.925 172.54271Q66.72188 171.55833 68.08125 171.55833Q69.09688 171.55833 69.7375 172.13646Q70.39375 172.69896 70.51875 173.69896ZM66.22188 177.40208Q66.22188 177.94896 66.44063 178.44896Q66.675 178.93333 67.08125 179.19896Q67.50313 179.46458 67.97188 179.46458Q68.62813 179.46458 69.1125 178.93333Q69.59688 178.38646 69.59688 177.46458Q69.59688 176.57396 69.1125 176.05833Q68.64375 175.54271 67.925 175.54271Q67.20625 175.54271 66.70625 176.05833Q66.22188 176.57396 66.22188 177.40208Z" fill-rule="nonzero"/><path fill="#000000" d="M66.675 134.10486Q66.01875 133.85486 65.69063 133.41736Q65.37813 132.96423 65.37813 132.35486Q65.37813 131.41736 66.05 130.77673Q66.7375 130.13611 67.84688 130.13611Q68.97188 130.13611 69.65938 130.79236Q70.34688 131.44861 70.34688 132.38611Q70.34688 132.97986 70.03438 133.41736Q69.72188 133.85486 69.08125 134.10486Q69.87813 134.35486 70.28438 134.93298Q70.69063 135.51111 70.69063 136.30798Q70.69063 137.40173 69.90938 138.15173Q69.14375 138.90173 67.8625 138.90173Q66.59688 138.90173 65.81563 138.15173Q65.03438 137.40173 65.03438 136.27673Q65.03438 135.43298 65.45625 134.87048Q65.89375 134.30798 66.675 134.10486ZM66.45625 132.30798Q66.45625 132.91736 66.84688 133.30798Q67.25313 133.69861 67.87813 133.69861Q68.4875 133.69861 68.87813 133.32361Q69.26875 132.93298 69.26875 132.37048Q69.26875 131.79236 68.8625 131.40173Q68.45625 130.99548 67.8625 130.99548Q67.25313 130.99548 66.84688 131.38611Q66.45625 131.77673 66.45625 132.30798ZM66.12813 136.27673Q66.12813 136.72986 66.33125 137.15173Q66.55 137.57361 66.97188 137.80798Q67.39375 138.04236 67.87813 138.04236Q68.62813 138.04236 69.1125 137.55798Q69.6125 137.07361 69.6125 136.32361Q69.6125 135.55798 69.1125 135.05798Q68.6125 134.55798 67.84688 134.55798Q67.09688 134.55798 66.6125 135.05798Q66.12813 135.54236 66.12813 136.27673Z" fill-rule="nonzero"/><path fill="#000000" d="M62.01875 97.33889L60.971874 97.33889L60.971874 90.62014Q60.58125 90.979515 59.95625 91.354515Q59.346874 91.71389 58.8625 91.885765L58.8625 90.87014Q59.7375 90.448265 60.39375 89.87014Q61.065624 89.27639 61.346874 88.71389L62.01875 88.71389L62.01875 97.33889ZM65.05 93.104515Q65.05 91.573265 65.3625 90.65139Q65.675 89.71389 66.28438 89.21389Q66.90938 88.71389 67.84688 88.71389Q68.53438 88.71389 69.05 88.99514Q69.58125 89.27639 69.925 89.80764Q70.26875 90.323265 70.45625 91.073265Q70.64375 91.823265 70.64375 93.104515Q70.64375 94.62014 70.33125 95.542015Q70.03438 96.46389 69.40938 96.979515Q68.8 97.479515 67.84688 97.479515Q66.6125 97.479515 65.89375 96.58889Q65.05 95.52639 65.05 93.104515ZM66.12813 93.104515Q66.12813 95.21389 66.62813 95.917015Q67.12813 96.62014 67.84688 96.62014Q68.58125 96.62014 69.06563 95.917015Q69.56563 95.21389 69.56563 93.104515Q69.56563 90.979515 69.06563 90.292015Q68.58125 89.58889 67.83125 89.58889Q67.1125 89.58889 66.675 90.198265Q66.12813 90.979515 66.12813 93.104515Z" fill-rule="nonzero"/><path fill="#000000" d="M62.01875 55.916668L60.971874 55.916668L60.971874 49.197918Q60.58125 49.557293 59.95625 49.932293Q59.346874 50.291668 58.8625 50.463543L58.8625 49.447918Q59.7375 49.026043 60.39375 48.447918Q61.065624 47.854168 61.346874 47.291668L62.01875 47.291668L62.01875 55.916668ZM70.59688 54.901043L70.59688 55.916668L64.90938 55.916668Q64.90938 55.541668 65.03438 55.182293Q65.25313 54.604168 65.72188 54.041668Q66.20625 53.479168 67.1125 52.744793Q68.51875 51.588543 69.00313 50.916668Q69.50313 50.244793 69.50313 49.651043Q69.50313 49.026043 69.05 48.604168Q68.59688 48.166668 67.87813 48.166668Q67.1125 48.166668 66.65938 48.619793Q66.20625 49.072918 66.19063 49.885418L65.1125 49.776043Q65.22188 48.557293 65.94063 47.932293Q66.675 47.291668 67.90938 47.291668Q69.14375 47.291668 69.8625 47.979168Q70.58125 48.666668 70.58125 49.682293Q70.58125 50.197918 70.3625 50.697918Q70.15938 51.182293 69.65938 51.744793Q69.175 52.291668 68.05 53.244793Q67.09688 54.041668 66.81563 54.338543Q66.55 54.619793 66.37813 54.901043L70.59688 54.901043Z" fill-rule="nonzero"/><path fill="#000000" d="M71.51875 317.45L70.47188 317.45L70.47188 310.73126Q70.08125 311.09064 69.45625 311.46564Q68.84688 311.825 68.3625 311.9969L68.3625 310.98126Q69.2375 310.5594 69.89375 309.98126Q70.56563 309.3875 70.84688 308.825L71.51875 308.825L71.51875 317.45ZM74.55 313.21564Q74.55 311.6844 74.8625 310.7625Q75.175 309.825 75.78438 309.325Q76.40938 308.825 77.34688 308.825Q78.03438 308.825 78.55 309.10626Q79.08125 309.3875 79.425 309.91876Q79.76875 310.4344 79.95625 311.1844Q80.14375 311.9344 80.14375 313.21564Q80.14375 314.73126 79.83125 315.65314Q79.53438 316.575 78.90938 317.09064Q78.3 317.59064 77.34688 317.59064Q76.1125 317.59064 75.39375 316.7Q74.55 315.6375 74.55 313.21564ZM75.62813 313.21564Q75.62813 315.325 76.12813 316.02814Q76.62813 316.73126 77.34688 316.73126Q78.08125 316.73126 78.56563 316.02814Q79.06563 315.325 79.06563 313.21564Q79.06563 311.09064 78.56563 310.40314Q78.08125 309.7 77.33125 309.7Q76.6125 309.7 76.175 310.3094Q75.62813 311.09064 75.62813 313.21564ZM81.55 313.21564Q81.55 311.6844 81.8625 310.7625Q82.175 309.825 82.78438 309.325Q83.40938 308.825 84.34688 308.825Q85.03438 308.825 85.55 309.10626Q86.08125 309.3875 86.425 309.91876Q86.76875 310.4344 86.95625 311.1844Q87.14375 311.9344 87.14375 313.21564Q87.14375 314.73126 86.83125 315.65314Q86.53438 316.575 85.90938 317.09064Q85.3 317.59064 84.34688 317.59064Q83.1125 317.59064 82.39375 316.7Q81.55 315.6375 81.55 313.21564ZM82.62813 313.21564Q82.62813 315.325 83.12813 316.02814Q83.62813 316.73126 84.34688 316.73126Q85.08125 316.73126 85.56563 316.02814Q86.06563 315.325 86.06563 313.21564Q86.06563 311.09064 85.56563 310.40314Q85.08125 309.7 84.33125 309.7Q83.6125 309.7 83.175 310.3094Q82.62813 311.09064 82.62813 313.21564Z" fill-rule="nonzero"/><path fill="#000000" d="M235.51666 315.1844L236.57916 315.04376Q236.75104 315.9344 237.18854 316.34064Q237.62604 316.73126 238.25104 316.73126Q239.00104 316.73126 239.51666 316.21564Q240.03229 315.7 240.03229 314.9344Q240.03229 314.21564 239.54791 313.7469Q239.07916 313.2625 238.34479 313.2625Q238.04791 313.2625 237.59479 313.3875L237.71979 312.45Q237.82916 312.46564 237.89166 312.46564Q238.56354 312.46564 239.09479 312.1219Q239.64166 311.7625 239.64166 311.02814Q239.64166 310.45 239.25104 310.075Q238.86041 309.6844 238.23541 309.6844Q237.62604 309.6844 237.20416 310.075Q236.79791 310.46564 236.68854 311.23126L235.62604 311.04376Q235.81354 309.9969 236.50104 309.41876Q237.18854 308.825 238.20416 308.825Q238.90729 308.825 239.50104 309.1375Q240.09479 309.4344 240.40729 309.95Q240.71979 310.46564 240.71979 311.0594Q240.71979 311.60626 240.42291 312.075Q240.12604 312.52814 239.54791 312.79376Q240.29791 312.96564 240.71979 313.52814Q241.14166 314.075 241.14166 314.91876Q241.14166 316.04376 240.31354 316.825Q239.50104 317.60626 238.25104 317.60626Q237.12604 317.60626 236.37604 316.9344Q235.62604 316.2469 235.51666 315.1844ZM242.51666 313.21564Q242.51666 311.6844 242.82916 310.7625Q243.14166 309.825 243.75104 309.325Q244.37604 308.825 245.31354 308.825Q246.00104 308.825 246.51666 309.10626Q247.04791 309.3875 247.39166 309.91876Q247.73541 310.4344 247.92291 311.1844Q248.11041 311.9344 248.11041 313.21564Q248.11041 314.73126 247.79791 315.65314Q247.50104 316.575 246.87604 317.09064Q246.26666 317.59064 245.31354 317.59064Q244.07916 317.59064 243.36041 316.7Q242.51666 315.6375 242.51666 313.21564ZM243.59479 313.21564Q243.59479 315.325 244.09479 316.02814Q244.59479 316.73126 245.31354 316.73126Q246.04791 316.73126 246.53229 316.02814Q247.03229 315.325 247.03229 313.21564Q247.03229 311.09064 246.53229 310.40314Q246.04791 309.7 245.29791 309.7Q244.57916 309.7 244.14166 310.3094Q243.59479 311.09064 243.59479 313.21564ZM249.51666 313.21564Q249.51666 311.6844 249.82916 310.7625Q250.14166 309.825 250.75104 309.325Q251.37604 308.825 252.31354 308.825Q253.00104 308.825 253.51666 309.10626Q254.04791 309.3875 254.39166 309.91876Q254.73541 310.4344 254.92291 311.1844Q255.11041 311.9344 255.11041 313.21564Q255.11041 314.73126 254.79791 315.65314Q254.50104 316.575 253.87604 317.09064Q253.26666 317.59064 252.31354 317.59064Q251.07916 317.59064 250.36041 316.7Q249.51666 315.6375 249.51666 313.21564ZM250.59479 313.21564Q250.59479 315.325 251.09479 316.02814Q251.59479 316.73126 252.31354 316.73126Q253.04791 316.73126 253.53229 316.02814Q254.03229 315.325 254.03229 313.21564Q254.03229 311.09064 253.53229 310.40314Q253.04791 309.7 252.29791 309.7Q251.57916 309.7 251.14166 310.3094Q250.59479 311.09064 250.59479 313.21564Z" fill-rule="nonzero"/><path fill="#000000" d="M403.48334 315.2L404.5927 315.10626Q404.7177 315.91876 405.1552 316.325Q405.60834 316.73126 406.24896 316.73126Q406.99896 316.73126 407.5302 316.15314Q408.06146 315.575 408.06146 314.6375Q408.06146 313.73126 407.54584 313.21564Q407.04584 312.6844 406.2177 312.6844Q405.7177 312.6844 405.29584 312.91876Q404.8896 313.15314 404.6552 313.5125L403.67084 313.3875L404.49896 308.98126L408.7802 308.98126L408.7802 309.98126L405.3427 309.98126L404.8896 312.29376Q405.6552 311.7469 406.49896 311.7469Q407.62396 311.7469 408.3896 312.52814Q409.17084 313.3094 409.17084 314.54376Q409.17084 315.7 408.49896 316.5594Q407.67084 317.59064 406.24896 317.59064Q405.0771 317.59064 404.3271 316.9344Q403.5927 316.27814 403.48334 315.2ZM410.48334 313.21564Q410.48334 311.6844 410.79584 310.7625Q411.10834 309.825 411.7177 309.325Q412.3427 308.825 413.2802 308.825Q413.9677 308.825 414.48334 309.10626Q415.0146 309.3875 415.35834 309.91876Q415.7021 310.4344 415.8896 311.1844Q416.0771 311.9344 416.0771 313.21564Q416.0771 314.73126 415.7646 315.65314Q415.4677 316.575 414.8427 317.09064Q414.23334 317.59064 413.2802 317.59064Q412.04584 317.59064 411.3271 316.7Q410.48334 315.6375 410.48334 313.21564ZM411.56146 313.21564Q411.56146 315.325 412.06146 316.02814Q412.56146 316.73126 413.2802 316.73126Q414.0146 316.73126 414.49896 316.02814Q414.99896 315.325 414.99896 313.21564Q414.99896 311.09064 414.49896 310.40314Q414.0146 309.7 413.2646 309.7Q412.54584 309.7 412.10834 310.3094Q411.56146 311.09064 411.56146 313.21564ZM417.48334 313.21564Q417.48334 311.6844 417.79584 310.7625Q418.10834 309.825 418.7177 309.325Q419.3427 308.825 420.2802 308.825Q420.9677 308.825 421.48334 309.10626Q422.0146 309.3875 422.35834 309.91876Q422.7021 310.4344 422.8896 311.1844Q423.0771 311.9344 423.0771 313.21564Q423.0771 314.73126 422.7646 315.65314Q422.4677 316.575 421.8427 317.09064Q421.23334 317.59064 420.2802 317.59064Q419.04584 317.59064 418.3271 316.7Q417.48334 315.6375 417.48334 313.21564ZM418.56146 313.21564Q418.56146 315.325 419.06146 316.02814Q419.56146 316.73126 420.2802 316.73126Q421.0146 316.73126 421.49896 316.02814Q421.99896 315.325 421.99896 313.21564Q421.99896 311.09064 421.49896 310.40314Q421.0146 309.7 420.2646 309.7Q419.54584 309.7 419.10834 310.3094Q418.56146 311.09064 418.56146 313.21564Z" fill-rule="nonzero"/><path fill="#000000" d="M571.5125 309.98126L571.5125 308.96564L577.075 308.96564L577.075 309.79376Q576.2625 310.66876 575.45 312.1219Q574.65314 313.5594 574.21564 315.09064Q573.8875 316.16876 573.8094 317.45L572.71564 317.45Q572.73126 316.4344 573.10626 314.9969Q573.4969 313.5594 574.2 312.23126Q574.91876 310.90314 575.73126 309.98126L571.5125 309.98126ZM578.45 313.21564Q578.45 311.6844 578.7625 310.7625Q579.075 309.825 579.6844 309.325Q580.3094 308.825 581.2469 308.825Q581.9344 308.825 582.45 309.10626Q582.98126 309.3875 583.325 309.91876Q583.66876 310.4344 583.85626 311.1844Q584.04376 311.9344 584.04376 313.21564Q584.04376 314.73126 583.73126 315.65314Q583.4344 316.575 582.8094 317.09064Q582.2 317.59064 581.2469 317.59064Q580.0125 317.59064 579.29376 316.7Q578.45 315.6375 578.45 313.21564ZM579.52814 313.21564Q579.52814 315.325 580.02814 316.02814Q580.52814 316.73126 581.2469 316.73126Q581.98126 316.73126 582.46564 316.02814Q582.96564 315.325 582.96564 313.21564Q582.96564 311.09064 582.46564 310.40314Q581.98126 309.7 581.23126 309.7Q580.5125 309.7 580.075 310.3094Q579.52814 311.09064 579.52814 313.21564ZM585.45 313.21564Q585.45 311.6844 585.7625 310.7625Q586.075 309.825 586.6844 309.325Q587.3094 308.825 588.2469 308.825Q588.9344 308.825 589.45 309.10626Q589.98126 309.3875 590.325 309.91876Q590.66876 310.4344 590.85626 311.1844Q591.04376 311.9344 591.04376 313.21564Q591.04376 314.73126 590.73126 315.65314Q590.4344 316.575 589.8094 317.09064Q589.2 317.59064 588.2469 317.59064Q587.0125 317.59064 586.29376 316.7Q585.45 315.6375 585.45 313.21564ZM586.52814 313.21564Q586.52814 315.325 587.02814 316.02814Q587.52814 316.73126 588.2469 316.73126Q588.98126 316.73126 589.46564 316.02814Q589.96564 315.325 589.96564 313.21564Q589.96564 311.09064 589.46564 310.40314Q588.98126 309.7 588.23126 309.7Q587.5125 309.7 587.075 310.3094Q586.52814 311.09064 586.52814 313.21564Z" fill-rule="nonzero"/><path stroke="#4285f4" stroke-width="4.0" stroke-linecap="butt" d="M130.0 25.55L142.0 25.55" fill-rule="nonzero"/><path fill="#1a1a1a" d="M153.09375 28.6125L153.25 29.534374Q152.79688 29.628124 152.45312 29.628124Q151.875 29.628124 151.5625 29.45625Q151.25 29.26875 151.10938 28.971874Q150.98438 28.675 150.98438 27.721874L150.98438 24.14375L150.21875 24.14375L150.21875 23.33125L150.98438 23.33125L150.98438 21.784374L152.03125 21.159374L152.03125 23.33125L153.09375 23.33125L153.09375 24.14375L152.03125 24.14375L152.03125 27.784374Q152.03125 28.2375 152.07812 28.3625Q152.14062 28.4875 152.26562 28.565624Q152.39062 28.64375 152.625 28.64375Q152.8125 28.64375 153.09375 28.6125ZM153.79688 29.55L153.79688 20.95625L154.84375 20.95625L154.84375 24.034374Q155.57812 23.190624 156.70312 23.190624Q157.40625 23.190624 157.90625 23.471874Q158.42188 23.7375 158.64062 24.221874Q158.85938 24.690624 158.85938 25.6125L158.85938 29.55L157.8125 29.55L157.8125 25.6125Q157.8125 24.815624 157.46875 24.45625Q157.125 24.096874 156.5 24.096874Q156.03125 24.096874 155.60938 24.346874Q155.20312 24.58125 155.01562 25.003124Q154.84375 25.409374 154.84375 26.14375L154.84375 29.55L153.79688 29.55ZM160.79688 22.175L160.79688 20.95625L161.85938 20.95625L161.85938 22.175L160.79688 22.175ZM160.79688 29.55L160.79688 23.33125L161.85938 23.33125L161.85938 29.55L160.79688 29.55ZM163.78125 29.55L163.78125 23.33125L164.73438 23.33125L164.73438 24.26875Q165.09375 23.6125 165.39062 23.409374Q165.70312 23.190624 166.07812 23.190624Q166.60938 23.190624 167.15625 23.51875L166.79688 24.503124Q166.40625 24.26875 166.03125 24.26875Q165.67188 24.26875 165.39062 24.4875Q165.125 24.690624 165.01562 25.065624Q164.82812 25.628124 164.82812 26.284374L164.82812 29.55L163.78125 29.55ZM171.82812 29.55L171.82812 28.76875Q171.23438 29.690624 170.09375 29.690624Q169.34375 29.690624 168.71875 29.284374Q168.09375 28.8625 167.75 28.128124Q167.40625 27.39375 167.40625 26.440624Q167.40625 25.51875 167.71875 24.753124Q168.03125 23.9875 168.65625 23.596874Q169.28125 23.190624 170.04688 23.190624Q170.60938 23.190624 171.04688 23.425Q171.48438 23.659374 171.76562 24.034374L171.76562 20.95625L172.8125 20.95625L172.8125 29.55L171.82812 29.55ZM168.5 26.440624Q168.5 27.64375 169.0 28.2375Q169.5 28.815624 170.1875 28.815624Q170.875 28.815624 171.35938 28.253124Q171.84375 27.690624 171.84375 26.534374Q171.84375 25.253124 171.34375 24.659374Q170.85938 24.065624 170.14062 24.065624Q169.4375 24.065624 168.96875 24.64375Q168.5 25.20625 168.5 26.440624Z" fill-rule="nonzero"/><path stroke="#ea4335" stroke-width="4.0" stroke-linecap="butt" d="M190.0 25.55L202.0 25.55" fill-rule="nonzero"/><path fill="#1a1a1a" d="M211.04688 29.55L211.04688 24.14375L210.10938 24.14375L210.10938 23.33125L211.04688 23.33125L211.04688 22.659374Q211.04688 22.034374 211.15625 21.7375Q211.3125 21.315624 211.6875 21.065624Q212.07812 20.815624 212.76562 20.815624Q213.21875 20.815624 213.75 20.925L213.59375 21.83125Q213.26562 21.784374 212.96875 21.784374Q212.48438 21.784374 212.28125 21.9875Q212.09375 22.190624 212.09375 22.753124L212.09375 23.33125L213.3125 23.33125L213.3125 24.14375L212.09375 24.14375L212.09375 29.55L211.04688 29.55ZM213.40625 26.440624Q213.40625 24.70625 214.35938 23.878124Q215.15625 23.190624 216.3125 23.190624Q217.59375 23.190624 218.40625 24.034374Q219.23438 24.8625 219.23438 26.346874Q219.23438 27.55 218.875 28.2375Q218.51562 28.925 217.8125 29.315624Q217.125 29.690624 216.3125 29.690624Q215.01562 29.690624 214.20312 28.8625Q213.40625 28.01875 213.40625 26.440624ZM214.48438 26.440624Q214.48438 27.628124 215.0 28.221874Q215.53125 28.815624 216.3125 28.815624Q217.10938 28.815624 217.625 28.221874Q218.14062 27.628124 218.14062 26.409374Q218.14062 25.253124 217.60938 24.659374Q217.09375 24.065624 216.3125 24.065624Q215.53125 24.065624 215.0 24.659374Q214.48438 25.2375 214.48438 26.440624ZM224.875 29.55L224.875 28.628124Q224.14062 29.690624 222.89062 29.690624Q222.34375 29.690624 221.85938 29.4875Q221.39062 29.26875 221.15625 28.95625Q220.92188 28.628124 220.82812 28.159374Q220.76562 27.8625 220.76562 27.175L220.76562 23.33125L221.82812 23.33125L221.82812 26.784374Q221.82812 27.596874 221.89062 27.89375Q221.98438 28.3 222.29688 28.55Q222.625 28.784374 223.10938 28.784374Q223.57812 28.784374 223.98438 28.55Q224.40625 28.3 224.57812 27.878124Q224.76562 27.45625 224.76562 26.659374L224.76562 23.33125L225.8125 23.33125L225.8125 29.55L224.875 29.55ZM227.78125 29.55L227.78125 23.33125L228.73438 23.33125L228.73438 24.26875Q229.09375 23.6125 229.39062 23.409374Q229.70312 23.190624 230.07812 23.190624Q230.60938 23.190624 231.15625 23.51875L230.79688 24.503124Q230.40625 24.26875 230.03125 24.26875Q229.67188 24.26875 229.39062 24.4875Q229.125 24.690624 229.01562 25.065624Q228.82812 25.628124 228.82812 26.284374L228.82812 29.55L227.78125 29.55ZM234.09375 28.6125L234.25 29.534374Q233.79688 29.628124 233.45312 29.628124Q232.875 29.628124 232.5625 29.45625Q232.25 29.26875 232.10938 28.971874Q231.98438 28.675 231.98438 27.721874L231.98438 24.14375L231.21875 24.14375L231.21875 23.33125L231.98438 23.33125L231.98438 21.784374L233.03125 21.159374L233.03125 23.33125L234.09375 23.33125L234.09375 24.14375L233.03125 24.14375L233.03125 27.784374Q233.03125 28.2375 233.07812 28.3625Q233.14062 28.4875 233.26562 28.565624Q233.39062 28.64375 233.625 28.64375Q233.8125 28.64375 234.09375 28.6125ZM234.79688 29.55L234.79688 20.95625L235.84375 20.95625L235.84375 24.034374Q236.57812 23.190624 237.70312 23.190624Q238.40625 23.190624 238.90625 23.471874Q239.42188 23.7375 239.64062 24.221874Q239.85938 24.690624 239.85938 25.6125L239.85938 29.55L238.8125 29.55L238.8125 25.6125Q238.8125 24.815624 238.46875 24.45625Q238.125 24.096874 237.5 24.096874Q237.03125 24.096874 236.60938 24.346874Q236.20312 24.58125 236.01562 25.003124Q235.84375 25.409374 235.84375 26.14375L235.84375 29.55L234.79688 29.55Z" fill-rule="nonzero"/><path stroke="#fbbc04" stroke-width="4.0" stroke-linecap="butt" d="M257.0 25.55L269.0 25.55" fill-rule="nonzero"/><path fill="#1a1a1a" d="M278.04688 29.55L278.04688 24.14375L277.10938 24.14375L277.10938 23.33125L278.04688 23.33125L278.04688 22.659374Q278.04688 22.034374 278.15625 21.7375Q278.3125 21.315624 278.6875 21.065624Q279.07812 20.815624 279.76562 20.815624Q280.21875 20.815624 280.75 20.925L280.59375 21.83125Q280.26562 21.784374 279.96875 21.784374Q279.48438 21.784374 279.28125 21.9875Q279.09375 22.190624 279.09375 22.753124L279.09375 23.33125L280.3125 23.33125L280.3125 24.14375L279.09375 24.14375L279.09375 29.55L278.04688 29.55ZM280.79688 22.175L280.79688 20.95625L281.85938 20.95625L281.85938 22.175L280.79688 22.175ZM280.79688 29.55L280.79688 23.33125L281.85938 23.33125L281.85938 29.55L280.79688 29.55ZM284.04688 29.55L284.04688 24.14375L283.10938 24.14375L283.10938 23.33125L284.04688 23.33125L284.04688 22.659374Q284.04688 22.034374 284.15625 21.7375Q284.3125 21.315624 284.6875 21.065624Q285.07812 20.815624 285.76562 20.815624Q286.21875 20.815624 286.75 20.925L286.59375 21.83125Q286.26562 21.784374 285.96875 21.784374Q285.48438 21.784374 285.28125 21.9875Q285.09375 22.190624 285.09375 22.753124L285.09375 23.33125L286.3125 23.33125L286.3125 24.14375L285.09375 24.14375L285.09375 29.55L284.04688 29.55ZM289.09375 28.6125L289.25 29.534374Q288.79688 29.628124 288.45312 29.628124Q287.875 29.628124 287.5625 29.45625Q287.25 29.26875 287.10938 28.971874Q286.98438 28.675 286.98438 27.721874L286.98438 24.14375L286.21875 24.14375L286.21875 23.33125L286.98438 23.33125L286.98438 21.784374L288.03125 21.159374L288.03125 23.33125L289.09375 23.33125L289.09375 24.14375L288.03125 24.14375L288.03125 27.784374Q288.03125 28.2375 288.07812 28.3625Q288.14062 28.4875 288.26562 28.565624Q288.39062 28.64375 288.625 28.64375Q288.8125 28.64375 289.09375 28.6125ZM289.79688 29.55L289.79688 20.95625L290.84375 20.95625L290.84375 24.034374Q291.57812 23.190624 292.70312 23.190624Q293.40625 23.190624 293.90625 23.471874Q294.42188 23.7375 294.64062 24.221874Q294.85938 24.690624 294.85938 25.6125L294.85938 29.55L293.8125 29.55L293.8125 25.6125Q293.8125 24.815624 293.46875 24.45625Q293.125 24.096874 292.5 24.096874Q292.03125 24.096874 291.60938 24.346874Q291.20312 24.58125 291.01562 25.003124Q290.84375 25.409374 290.84375 26.14375L290.84375 29.55L289.79688 29.55Z" fill-rule="nonzero"/><path stroke="#34a853" stroke-width="4.0" stroke-linecap="butt" d="M312.0 25.55L324.0 25.55" fill-rule="nonzero"/><path fill="#1a1a1a" d="M332.375 27.690624L333.40625 27.534374Q333.5 28.159374 333.89062 28.4875Q334.29688 28.815624 335.03125 28.815624Q335.75 28.815624 336.09375 28.534374Q336.45312 28.2375 336.45312 27.83125Q336.45312 27.471874 336.14062 27.26875Q335.92188 27.128124 335.0625 26.909374Q333.90625 26.6125 333.45312 26.409374Q333.01562 26.190624 332.78125 25.815624Q332.54688 25.440624 332.54688 24.971874Q332.54688 24.565624 332.73438 24.20625Q332.92188 23.846874 333.25 23.6125Q333.5 23.440624 333.92188 23.315624Q334.34375 23.190624 334.84375 23.190624Q335.5625 23.190624 336.10938 23.409374Q336.67188 23.6125 336.9375 23.971874Q337.20312 24.33125 337.29688 24.925L336.26562 25.065624Q336.20312 24.596874 335.85938 24.33125Q335.53125 24.05 334.90625 24.05Q334.1875 24.05 333.875 24.3Q333.5625 24.534374 333.5625 24.8625Q333.5625 25.065624 333.6875 25.221874Q333.82812 25.39375 334.09375 25.503124Q334.25 25.565624 335.03125 25.76875Q336.15625 26.08125 336.59375 26.26875Q337.03125 26.45625 337.28125 26.815624Q337.53125 27.175 337.53125 27.721874Q337.53125 28.253124 337.21875 28.721874Q336.92188 29.175 336.34375 29.440624Q335.76562 29.690624 335.03125 29.690624Q333.8125 29.690624 333.17188 29.190624Q332.54688 28.675 332.375 27.690624ZM342.09375 28.6125L342.25 29.534374Q341.79688 29.628124 341.45312 29.628124Q340.875 29.628124 340.5625 29.45625Q340.25 29.26875 340.10938 28.971874Q339.98438 28.675 339.98438 27.721874L339.98438 24.14375L339.21875 24.14375L339.21875 23.33125L339.98438 23.33125L339.98438 21.784374L341.03125 21.159374L341.03125 23.33125L342.09375 23.33125L342.09375 24.14375L341.03125 24.14375L341.03125 27.784374Q341.03125 28.2375 341.07812 28.3625Q341.14062 28.4875 341.26562 28.565624Q341.39062 28.64375 341.625 28.64375Q341.8125 28.64375 342.09375 28.6125ZM346.82812 29.55L346.82812 28.76875Q346.23438 29.690624 345.09375 29.690624Q344.34375 29.690624 343.71875 29.284374Q343.09375 28.8625 342.75 28.128124Q342.40625 27.39375 342.40625 26.440624Q342.40625 25.51875 342.71875 24.753124Q343.03125 23.9875 343.65625 23.596874Q344.28125 23.190624 345.04688 23.190624Q345.60938 23.190624 346.04688 23.425Q346.48438 23.659374 346.76562 24.034374L346.76562 20.95625L347.8125 20.95625L347.8125 29.55L346.82812 29.55ZM343.5 26.440624Q343.5 27.64375 344.0 28.2375Q344.5 28.815624 345.1875 28.815624Q345.875 28.815624 346.35938 28.253124Q346.84375 27.690624 346.84375 26.534374Q346.84375 25.253124 346.34375 24.659374Q345.85938 24.065624 345.14062 24.065624Q344.4375 24.065624 343.96875 24.64375Q343.5 25.20625 343.5 26.440624ZM350.07812 24.534374L350.07812 23.33125L351.28125 23.33125L351.28125 24.534374L350.07812 24.534374ZM350.07812 29.55L350.07812 28.346874L351.28125 28.346874L351.28125 29.55L350.07812 29.55ZM353.07812 24.534374L353.07812 23.33125L354.28125 23.33125L354.28125 24.534374L353.07812 24.534374ZM353.07812 29.55L353.07812 28.346874L354.28125 28.346874L354.28125 29.55L353.07812 29.55ZM359.85938 27.26875L360.89062 27.409374Q360.71875 28.471874 360.01562 29.08125Q359.3125 29.690624 358.29688 29.690624Q357.01562 29.690624 356.23438 28.8625Q355.46875 28.01875 355.46875 26.45625Q355.46875 25.45625 355.79688 24.70625Q356.14062 23.940624 356.8125 23.565624Q357.5 23.190624 358.3125 23.190624Q359.3125 23.190624 359.95312 23.70625Q360.60938 24.20625 360.79688 25.159374L359.76562 25.315624Q359.625 24.690624 359.25 24.378124Q358.875 24.05 358.34375 24.05Q357.54688 24.05 357.04688 24.628124Q356.54688 25.190624 356.54688 26.425Q356.54688 27.690624 357.03125 28.253124Q357.51562 28.815624 358.28125 28.815624Q358.90625 28.815624 359.3125 28.440624Q359.73438 28.065624 359.85938 27.26875ZM361.40625 26.440624Q361.40625 24.70625 362.35938 23.878124Q363.15625 23.190624 364.3125 23.190624Q365.59375 23.190624 366.40625 24.034374Q367.23438 24.8625 367.23438 26.346874Q367.23438 27.55 366.875 28.2375Q366.51562 28.925 365.8125 29.315624Q365.125 29.690624 364.3125 29.690624Q363.01562 29.690624 362.20312 28.8625Q361.40625 28.01875 361.40625 26.440624ZM362.48438 26.440624Q362.48438 27.628124 363.0 28.221874Q363.53125 28.815624 364.3125 28.815624Q365.10938 28.815624 365.625 28.221874Q366.14062 27.628124 366.14062 26.409374Q366.14062 25.253124 365.60938 24.659374Q365.09375 24.065624 364.3125 24.065624Q363.53125 24.065624 363.0 24.659374Q362.48438 25.2375 362.48438 26.440624ZM368.76562 29.55L368.76562 20.95625L369.82812 20.95625L369.82812 29.55L368.76562 29.55ZM371.76562 29.55L371.76562 20.95625L372.82812 20.95625L372.82812 29.55L371.76562 29.55ZM379.04688 27.55L380.14062 27.675Q379.89062 28.628124 379.1875 29.159374Q378.48438 29.690624 377.40625 29.690624Q376.04688 29.690624 375.23438 28.846874Q374.4375 28.003124 374.4375 26.4875Q374.4375 24.925 375.25 24.065624Q376.0625 23.190624 377.34375 23.190624Q378.59375 23.190624 379.375 24.034374Q380.17188 24.878124 380.17188 26.425Q380.17188 26.51875 380.17188 26.70625L375.53125 26.70625Q375.59375 27.7375 376.10938 28.284374Q376.625 28.815624 377.40625 28.815624Q377.98438 28.815624 378.39062 28.51875Q378.8125 28.20625 379.04688 27.55ZM375.59375 25.846874L379.0625 25.846874Q379.0 25.05 378.67188 24.659374Q378.15625 24.05 377.35938 24.05Q376.625 24.05 376.125 24.534374Q375.64062 25.01875 375.59375 25.846874ZM385.85938 27.26875L386.89062 27.409374Q386.71875 28.471874 386.01562 29.08125Q385.3125 29.690624 384.29688 29.690624Q383.01562 29.690624 382.23438 28.8625Q381.46875 28.01875 381.46875 26.45625Q381.46875 25.45625 381.79688 24.70625Q382.14062 23.940624 382.8125 23.565624Q383.5 23.190624 384.3125 23.190624Q385.3125 23.190624 385.95312 23.70625Q386.60938 24.20625 386.79688 25.159374L385.76562 25.315624Q385.625 24.690624 385.25 24.378124Q384.875 24.05 384.34375 24.05Q383.54688 24.05 383.04688 24.628124Q382.54688 25.190624 382.54688 26.425Q382.54688 27.690624 383.03125 28.253124Q383.51562 28.815624 384.28125 28.815624Q384.90625 28.815624 385.3125 28.440624Q385.73438 28.065624 385.85938 27.26875ZM390.09375 28.6125L390.25 29.534374Q389.79688 29.628124 389.45312 29.628124Q388.875 29.628124 388.5625 29.45625Q388.25 29.26875 388.10938 28.971874Q387.98438 28.675 387.98438 27.721874L387.98438 24.14375L387.21875 24.14375L387.21875 23.33125L387.98438 23.33125L387.98438 21.784374L389.03125 21.159374L389.03125 23.33125L390.09375 23.33125L390.09375 24.14375L389.03125 24.14375L389.03125 27.784374Q389.03125 28.2375 389.07812 28.3625Q389.14062 28.4875 389.26562 28.565624Q389.39062 28.64375 389.625 28.64375Q389.8125 28.64375 390.09375 28.6125ZM390.79688 22.175L390.79688 20.95625L391.85938 20.95625L391.85938 22.175L390.79688 22.175ZM390.79688 29.55L390.79688 23.33125L391.85938 23.33125L391.85938 29.55L390.79688 29.55ZM393.40625 26.440624Q393.40625 24.70625 394.35938 23.878124Q395.15625 23.190624 396.3125 23.190624Q397.59375 23.190624 398.40625 24.034374Q399.23438 24.8625 399.23438 26.346874Q399.23438 27.55 398.875 28.2375Q398.51562 28.925 397.8125 29.315624Q397.125 29.690624 396.3125 29.690624Q395.01562 29.690624 394.20312 28.8625Q393.40625 28.01875 393.40625 26.440624ZM394.48438 26.440624Q394.48438 27.628124 395.0 28.221874Q395.53125 28.815624 396.3125 28.815624Q397.10938 28.815624 397.625 28.221874Q398.14062 27.628124 398.14062 26.409374Q398.14062 25.253124 397.60938 24.659374Q397.09375 24.065624 396.3125 24.065624Q395.53125 24.065624 395.0 24.659374Q394.48438 25.2375 394.48438 26.440624ZM400.79688 29.55L400.79688 23.33125L401.73438 23.33125L401.73438 24.20625Q402.42188 23.190624 403.71875 23.190624Q404.28125 23.190624 404.75 23.39375Q405.23438 23.596874 405.46875 23.925Q405.70312 24.253124 405.79688 24.690624Q405.84375 24.9875 405.84375 25.721874L405.84375 29.55L404.79688 29.55L404.79688 25.76875Q404.79688 25.1125 404.67188 24.8Q404.54688 24.4875 404.23438 24.3Q403.92188 24.096874 403.5 24.096874Q402.82812 24.096874 402.32812 24.534374Q401.84375 24.95625 401.84375 26.14375L401.84375 29.55L400.79688 29.55ZM408.07812 24.534374L408.07812 23.33125L409.28125 23.33125L409.28125 24.534374L408.07812 24.534374ZM408.07812 29.55L408.07812 28.346874L409.28125 28.346874L409.28125 29.55L408.07812 29.55ZM411.07812 24.534374L411.07812 23.33125L412.28125 23.33125L412.28125 24.534374L411.07812 24.534374ZM411.07812 29.55L411.07812 28.346874L412.28125 28.346874L412.28125 29.55L411.07812 29.55ZM416.375 29.55L413.04688 20.95625L414.28125 20.95625L416.51562 27.20625Q416.78125 27.95625 416.96875 28.6125Q417.17188 27.909374 417.4375 27.20625L419.75 20.95625L420.90625 20.95625L417.54688 29.55L416.375 29.55ZM425.04688 27.55L426.14062 27.675Q425.89062 28.628124 425.1875 29.159374Q424.48438 29.690624 423.40625 29.690624Q422.04688 29.690624 421.23438 28.846874Q420.4375 28.003124 420.4375 26.4875Q420.4375 24.925 421.25 24.065624Q422.0625 23.190624 423.34375 23.190624Q424.59375 23.190624 425.375 24.034374Q426.17188 24.878124 426.17188 26.425Q426.17188 26.51875 426.17188 26.70625L421.53125 26.70625Q421.59375 27.7375 422.10938 28.284374Q422.625 28.815624 423.40625 28.815624Q423.98438 28.815624 424.39062 28.51875Q424.8125 28.20625 425.04688 27.55ZM421.59375 25.846874L425.0625 25.846874Q425.0 25.05 424.67188 24.659374Q424.15625 24.05 423.35938 24.05Q422.625 24.05 422.125 24.534374Q421.64062 25.01875 421.59375 25.846874ZM431.85938 27.26875L432.89062 27.409374Q432.71875 28.471874 432.01562 29.08125Q431.3125 29.690624 430.29688 29.690624Q429.01562 29.690624 428.23438 28.8625Q427.46875 28.01875 427.46875 26.45625Q427.46875 25.45625 427.79688 24.70625Q428.14062 23.940624 428.8125 23.565624Q429.5 23.190624 430.3125 23.190624Q431.3125 23.190624 431.95312 23.70625Q432.60938 24.20625 432.79688 25.159374L431.76562 25.315624Q431.625 24.690624 431.25 24.378124Q430.875 24.05 430.34375 24.05Q429.54688 24.05 429.04688 24.628124Q428.54688 25.190624 428.54688 26.425Q428.54688 27.690624 429.03125 28.253124Q429.51562 28.815624 430.28125 28.815624Q430.90625 28.815624 431.3125 28.440624Q431.73438 28.065624 431.85938 27.26875ZM433.92188 29.55L433.92188 20.95625L436.89062 20.95625Q437.89062 20.95625 438.42188 21.08125Q439.15625 21.253124 439.67188 21.690624Q440.35938 22.26875 440.6875 23.175Q441.03125 24.065624 441.03125 25.20625Q441.03125 26.190624 440.79688 26.940624Q440.57812 27.690624 440.21875 28.190624Q439.85938 28.690624 439.42188 28.971874Q439.0 29.253124 438.40625 29.409374Q437.8125 29.55 437.03125 29.55L433.92188 29.55ZM435.0625 28.534374L436.89062 28.534374Q437.75 28.534374 438.23438 28.378124Q438.71875 28.221874 439.0 27.925Q439.40625 27.534374 439.625 26.846874Q439.85938 26.159374 439.85938 25.190624Q439.85938 23.846874 439.40625 23.128124Q438.96875 22.39375 438.34375 22.14375Q437.875 21.971874 436.875 21.971874L435.0625 21.971874L435.0625 28.534374ZM447.04688 27.55L448.14062 27.675Q447.89062 28.628124 447.1875 29.159374Q446.48438 29.690624 445.40625 29.690624Q444.04688 29.690624 443.23438 28.846874Q442.4375 28.003124 442.4375 26.4875Q442.4375 24.925 443.25 24.065624Q444.0625 23.190624 445.34375 23.190624Q446.59375 23.190624 447.375 24.034374Q448.17188 24.878124 448.17188 26.425Q448.17188 26.51875 448.17188 26.70625L443.53125 26.70625Q443.59375 27.7375 444.10938 28.284374Q444.625 28.815624 445.40625 28.815624Q445.98438 28.815624 446.39062 28.51875Q446.8125 28.20625 447.04688 27.55ZM443.59375 25.846874L447.0625 25.846874Q447.0 25.05 446.67188 24.659374Q446.15625 24.05 445.35938 24.05Q444.625 24.05 444.125 24.534374Q443.64062 25.01875 443.59375 25.846874ZM453.76562 31.940624L453.76562 28.89375Q453.51562 29.2375 453.0625 29.471874Q452.625 29.690624 452.125 29.690624Q451.01562 29.690624 450.21875 28.815624Q449.42188 27.925 449.42188 26.378124Q449.42188 25.440624 449.75 24.70625Q450.07812 23.95625 450.6875 23.58125Q451.3125 23.190624 452.04688 23.190624Q453.20312 23.190624 453.85938 24.159374L453.85938 23.33125L454.8125 23.33125L454.8125 31.940624L453.76562 31.940624ZM450.5 26.425Q450.5 27.628124 451.0 28.221874Q451.51562 28.815624 452.21875 28.815624Q452.89062 28.815624 453.375 28.253124Q453.85938 27.675 453.85938 26.51875Q453.85938 25.26875 453.34375 24.64375Q452.84375 24.01875 452.14062 24.01875Q451.46875 24.01875 450.98438 24.6125Q450.5 25.190624 450.5 26.425ZM460.875 29.55L460.875 28.628124Q460.14062 29.690624 458.89062 29.690624Q458.34375 29.690624 457.85938 29.4875Q457.39062 29.26875 457.15625 28.95625Q456.92188 28.628124 456.82812 28.159374Q456.76562 27.8625 456.76562 27.175L456.76562 23.33125L457.82812 23.33125L457.82812 26.784374Q457.82812 27.596874 457.89062 27.89375Q457.98438 28.3 458.29688 28.55Q458.625 28.784374 459.10938 28.784374Q459.57812 28.784374 459.98438 28.55Q460.40625 28.3 460.57812 27.878124Q460.76562 27.45625 460.76562 26.659374L460.76562 23.33125L461.8125 23.33125L461.8125 29.55L460.875 29.55ZM468.04688 27.55L469.14062 27.675Q468.89062 28.628124 468.1875 29.159374Q467.48438 29.690624 466.40625 29.690624Q465.04688 29.690624 464.23438 28.846874Q463.4375 28.003124 463.4375 26.4875Q463.4375 24.925 464.25 24.065624Q465.0625 23.190624 466.34375 23.190624Q467.59375 23.190624 468.375 24.034374Q469.17188 24.878124 469.17188 26.425Q469.17188 26.51875 469.17188 26.70625L464.53125 26.70625Q464.59375 27.7375 465.10938 28.284374Q465.625 28.815624 466.40625 28.815624Q466.98438 28.815624 467.39062 28.51875Q467.8125 28.20625 468.04688 27.55ZM464.59375 25.846874L468.0625 25.846874Q468.0 25.05 467.67188 24.659374Q467.15625 24.05 466.35938 24.05Q465.625 24.05 465.125 24.534374Q464.64062 25.01875 464.59375 25.846874Z" fill-rule="nonzero"/></svg>